<?xml version="1.0" encoding="utf-8"?>
<!DOCTYPE svg PUBLIC "-//W3C//DTD SVG 20010904//EN" "http://www.w3.org/TR/2001/REC-SVG-20010904/DTD/svg10.dtd">
<svg version="1.0" xmlns="http://www.w3.org/2000/svg" width="100px" height="100px" viewBox="0 0 100 100" preserveAspectRatio="xMidYMid meet">
 <g fill="#ffffff">
  <path d="M67 80 l0 -5.1 4.3 0.3 4.2 0.3 0 4.5 0 4.5 -4.2 0.3 -4.3 0.3 0 -5.1z"/>
  <path d="M14 52.5 c0 -4.5 0 -4.5 3.4 -4.5 5.4 0 6.6 0.8 6.6 4.5 0 3.7 -1.2 4.5 -6.6 4.5 -3.4 0 -3.4 0 -3.4 -4.5z"/>
 </g>
 <g fill="#fdfcef">
  <path d="M41.5 85.5 c-5.7 -1.3 -11 -3.8 -14.2 -6.8 -1.9 -1.7 -2.1 -2.7 -1.6 -6.6 0.3 -2.5 0.9 -5.3 1.4 -6.2 1 -2 11 -5.9 15 -5.9 2.6 0 2.9 0.3 2.9 3.5 0 2.8 0.4 3.5 2 3.5 1.1 0 2.7 -1.1 3.6 -2.5 1.4 -2.2 2.4 -2.5 7.1 -2.5 3 0 6.8 0.7 8.5 1.6 2.9 1.5 3 1.8 2.5 6.2 -0.3 3 -1.2 5.2 -2.5 6.3 -1.3 1 -2.2 3.1 -2.4 5.5 -0.3 3.6 -0.5 3.9 -3.5 4 -1.8 0.1 -4.9 0.5 -6.9 0.9 -2.6 0.4 -3.9 0.3 -4.5 -0.7 -0.6 -0.9 -1.1 -1 -1.6 -0.2 -0.6 0.8 -2.2 0.8 -5.8 -0.1z"/>
  <path d="M14.7 58.3 c-0.4 -0.3 -0.7 -3 -0.7 -6 l0 -5.3 4 0 c2.9 0 4.2 0.5 5 1.9 1.4 2.6 1.3 7.4 -0.2 8.9 -1.3 1.3 -7 1.7 -8.1 0.5z m5.1 -5.2 c1.1 -0.7 1 -1 -0.3 -1.5 -1.9 -0.7 -3.5 0 -3.5 1.5 0 1.1 2 1.2 3.8 0z"/>
 </g>
 <g fill="#eaeae8">
  <path d="M50 84 c0 -1.8 0.4 -2.9 1 -2.5 0.6 0.3 1 1.6 1 2.8 0 1.6 0.3 1.8 0.9 0.8 0.6 -0.8 1.6 -1.1 3.1 -0.6 1.5 0.5 2.5 0.2 3.1 -0.6 0.7 -1.1 0.9 -1.1 0.9 -0.1 0 1.4 -0.8 1.8 -6.2 2.7 -3.7 0.6 -3.8 0.5 -3.8 -2.5z"/>
  <path d="M67.8 84.3 c-1.3 -0.3 -1.8 -1.5 -1.8 -4.3 0 -4 1.3 -5 7.3 -5 2.6 0 2.7 0.2 2.7 5 0 5 0 5 -3.2 4.9 -1.8 -0.1 -4.1 -0.3 -5 -0.6z m4.7 -4.3 c0 -0.7 -0.6 -1.5 -1.2 -1.7 -0.8 -0.3 -1.3 0.4 -1.3 1.7 0 1.3 0.5 2 1.3 1.8 0.6 -0.3 1.2 -1.1 1.2 -1.8z"/>
  <path d="M46 73 c0 -1.3 -1 -2.4 -2.5 -3 -1.4 -0.5 -3 -2.1 -3.6 -3.4 -0.7 -1.4 -1.7 -2.2 -2.5 -1.9 -0.9 0.3 -1.4 -0.2 -1.4 -1.7 0 -2 0.4 -2.1 6.8 -2 3.7 0.1 7.9 -0.2 9.4 -0.6 4.1 -1 7.8 0.3 7.8 2.6 0 1.4 -0.7 2 -2.1 2 -2.6 0 -8.4 5.9 -8 8.3 0.1 1.1 -0.4 1.7 -1.8 1.7 -1.4 0 -2.1 -0.6 -2.1 -2z"/>
 </g>
 <g fill="#fce0a2">
  <path d="M25.4 76.8 c-2.3 -2.4 -5.1 -5.8 -6.3 -7.5 -1.2 -1.8 -2.8 -3.3 -3.6 -3.3 -1.2 0 -2.7 -4.8 -1.9 -6.2 0.3 -0.4 0.6 -5.1 0.7 -10.5 0.2 -9 0.5 -10.3 3.6 -16.1 3.9 -7.2 8.8 -11.9 16.3 -15.9 4.8 -2.5 6.2 -2.8 15.8 -2.8 9.6 0 11 0.3 15.8 2.8 7.5 3.9 12.4 8.7 16.3 15.9 3.3 6 3.4 6.8 3.4 16.8 0 10.3 -0.1 10.7 -3.7 17.3 -2.9 5.1 -3.4 6.7 -2.2 6.7 0.8 0 1.2 0.5 0.9 1 -1 1.6 -5.5 1.2 -5.5 -0.5 0 -1.1 -1.1 -1.5 -3.9 -1.5 -3.9 0 -6.8 -2 -5.7 -3.9 1.2 -2 -10.2 -6.3 -12.8 -4.9 -1.3 0.8 -1.6 0.3 -1.6 -3.1 0 -2.2 0.4 -4.2 0.9 -4.6 1.6 -0.9 7.1 -9.5 6.2 -9.5 -0.5 0 -1.1 -3.2 -1.3 -7 -0.7 -9.3 -2.4 -11.3 -8.7 -10.4 -4.9 0.6 -8.1 3.2 -8.1 6.5 0 1.2 0.7 1.9 2 1.9 1.5 0 2 0.7 2 2.9 0 3.9 -0.9 6.1 -2.6 6.1 -0.8 0 -1.4 0.7 -1.4 1.6 0 1.9 3.1 7.4 4.2 7.4 0.4 0 0.8 2 0.8 4.5 0 4 -0.2 4.5 -1.7 3.6 -1.7 -0.9 -10.5 1.8 -12.7 3.9 -1.4 1.4 -2.4 9.6 -1.4 11.4 1.4 2.5 0.5 1.9 -3.8 -2.6z m-5.4 -25.2 c-1.6 -2.1 -3.9 -2 -4.7 0 -0.4 1.1 0.1 2.2 1.2 3.1 1.6 1.1 2.1 1.1 3.4 -0.1 1.2 -1.2 1.2 -1.8 0.1 -3z"/>
 </g>
 <g fill="#edbc94">
  <path d="M74 71.5 c0 -3.3 0.2 -3.5 2 -2.5 1.1 0.6 2 1.9 2 3 0 1 0.8 2.1 1.8 2.3 0.9 0.3 0 0.5 -2 0.6 -3.7 0.1 -3.8 0 -3.8 -3.4z"/>
  <path d="M28.1 71.4 c-0.1 -1.1 0.9 -2.9 2.1 -4 1.3 -1.1 1.7 -1.2 1.1 -0.3 -0.7 0.8 -1.7 2.6 -2.2 4 -0.9 2.2 -1 2.2 -1 0.3z"/>
  <path d="M44.1 64.6 c-1.4 -0.8 -3.2 -1.2 -4 -0.9 -1.2 0.3 -1.1 0.1 0.2 -0.7 1.7 -1.1 2.3 -3.6 0.9 -4.2 -0.4 -0.1 -2.2 -2.3 -4 -4.7 -3.5 -4.9 -4.3 -10.1 -1.6 -10.1 1.2 0 1.5 -0.6 1 -2.4 -0.4 -1.6 0 -3 1 -4 1.6 -1.7 8.4 -2.2 8.4 -0.7 0 0.5 1.6 0.5 3.8 0 2 -0.5 5.2 -0.9 7 -0.9 3.1 0 3.2 0.2 3.2 3.9 0 2.5 0.5 4.1 1.5 4.5 0.8 0.3 1.5 1.3 1.5 2.2 0 1.7 -6.3 11.8 -8 12.9 -1.8 1.1 -1 2.5 2.3 3.9 1.7 0.8 2.5 1.5 1.7 1.5 -0.8 0 -2.1 -0.3 -2.9 -0.8 -1 -0.6 -2.5 -0.4 -4.2 0.5 -3.4 1.7 -4.7 1.7 -7.8 0z"/>
 </g>
 <g fill="#afabd4">
  <path d="M65.6 88.6 c-0.6 -2.5 -2.2 -3.2 -6.9 -2.8 -1.6 0.2 -1.6 0 0.3 -2 2.1 -2.3 2.6 -5.3 1 -6.3 -1.2 -0.8 -0.1 -3.5 1.5 -3.5 1.7 0 3.6 -2.4 3.8 -4.9 0.2 -2.5 0.6 -2.6 3.6 -0.4 1.8 1.2 2.8 1.3 4.1 0.5 2.1 -1.2 3.5 -0.4 4.4 2.6 0.4 1.2 1.5 2.2 2.6 2.2 2.3 0 3 1.9 1.6 4.3 -0.8 1.2 -0.8 2.2 0 3.5 1.4 2.3 0.7 4.2 -1.7 4.2 -1.2 0 -2.3 1 -2.9 2.6 -0.8 1.9 -1.5 2.4 -2.8 1.9 -2 -0.9 -3 -0.9 -5.8 0 -1.7 0.5 -2.3 0.2 -2.8 -1.9z m7.4 -8.6 c0 -1.1 -0.6 -2 -1.4 -2 -1.8 0 -2.9 1.6 -2.1 3 1.1 1.8 3.5 1.1 3.5 -1z"/>
  <path d="M46 71.6 c0 -3.9 0.9 -4.9 3 -3.5 1.3 0.8 1.3 1 0 2 -1.1 0.8 -1.2 1.2 -0.2 1.6 2 0.8 1.4 3.3 -0.8 3.3 -1.6 0 -2 -0.7 -2 -3.4z"/>
 </g>
 <g fill="#fbcd59">
  <path d="M12.7 65.3 c-1.3 -1.2 -0.7 -4 1.2 -5.7 1.6 -1.5 2 -1.5 3.1 -0.1 1.7 2 0.5 6.5 -1.9 6.5 -1 0 -2.1 -0.3 -2.4 -0.7z"/>
 </g>
 <g fill="#f1bc19">
  <path d="M80.4 16.6 c-1 -2.6 0.4 -4.8 2.8 -4.4 3.3 0.4 3.3 5.2 0 5.6 -1.3 0.2 -2.5 -0.3 -2.8 -1.2z"/>
 </g>
 <g fill="#66798f">
  <path d="M65.6 88.5 c-0.4 -1.5 -1.4 -2.5 -2.4 -2.5 -2.9 0 -4.3 -1.9 -2.9 -4.1 0.9 -1.4 0.9 -2.4 0 -3.7 -1.3 -2.2 -0.5 -3.8 2.2 -4.3 3 -0.6 3.7 -5 1.1 -7.2 -1.4 -1.3 -0.5 -1 2.8 0.7 3.2 1.7 5.7 2.4 7.5 2 l2.6 -0.5 -2.8 1.6 c-1.9 1.1 -3.2 1.3 -4.6 0.6 -1.9 -1 -3.1 -0.6 -3.1 1.2 0 0.5 1.6 0.7 3.5 0.5 1.9 -0.2 3.5 0 3.5 0.4 0 0.4 -0.7 0.8 -1.5 0.8 -0.9 0 -2.7 1.1 -4.1 2.5 -1.4 1.4 -2.9 2.5 -3.3 2.5 -0.5 0 -1.1 0.8 -1.5 1.8 -0.3 0.9 -0.9 2.3 -1.2 3 -0.4 0.7 0.2 1.2 1.5 1.2 1.3 0 2.6 1 3.2 2.4 0.8 1.7 1.7 2.2 3.3 1.9 1.7 -0.4 1.8 -0.3 0.6 0.6 -2.4 1.7 -3.7 1.3 -4.4 -1.4z m-1.2 -12 c0.3 -0.9 0 -1.5 -0.9 -1.5 -1.6 0 -2.7 1.4 -1.8 2.4 1 1 2.1 0.7 2.7 -0.9z"/>
  <path d="M76.3 88.5 c0.1 -1.1 1.1 -2.4 2.2 -2.9 1.6 -0.7 2 -1.8 2 -5.7 0 -3 -0.4 -4.9 -1.1 -4.9 -0.6 0 -1.7 -0.7 -2.4 -1.5 -0.9 -1 -0.9 -1.5 -0.1 -1.5 0.6 0 1.1 0.5 1.1 1 0 0.6 0.9 1 1.9 1 2.4 0 3.1 1.9 1.7 4.3 -0.8 1.2 -0.8 2.2 0 3.5 1.4 2.3 0.7 4.2 -1.7 4.2 -1.1 0 -2.4 1 -2.9 2.3 -0.9 1.9 -1 1.9 -0.7 0.2z"/>
  <path d="M45.2 86.1 c-1.1 -0.6 -1.1 -2.1 -0.2 -7.4 1 -5.4 1.6 -6.7 3.1 -6.7 1.3 0 2 1 2.4 3.8 0.3 2 1 5.4 1.4 7.5 0.9 3.7 0.9 3.7 -2.3 3.7 -1.7 0 -3.7 -0.4 -4.4 -0.9z"/>
  <path d="M66 84.4 c-2.7 -2.7 -1.7 -3.4 1.2 -0.7 1 0.9 3.2 1.6 4.8 1.5 1.7 0 2.8 0.4 2.5 0.9 -1.1 1.7 -6 0.8 -8.5 -1.7z"/>
  <path d="M69.5 82.6 c-2.7 -2 -1.5 -5.1 2 -5.1 2.3 0 3.1 0.5 3.3 2.2 0.4 2.9 -2.8 4.7 -5.3 2.9z m3.5 -2.6 c0 -2.1 -2.4 -2.8 -3.5 -1 -0.8 1.4 0.3 3 2.1 3 0.8 0 1.4 -0.9 1.4 -2z"/>
  <path d="M76.6 81.8 c0.3 -1.4 0.1 -3.7 -0.6 -5 -1.1 -2.2 -1 -2.2 0.4 -0.4 1.8 2.3 2 4.5 0.6 6.6 -0.8 1.1 -0.9 0.8 -0.4 -1.2z"/>
  <path d="M42.6 44.5 c0.4 -1 0 -1.5 -1.2 -1.5 -1.6 0 -1.6 -0.2 0.4 -2 1.6 -1.5 3.5 -2 7.7 -2 3.1 0 5.4 0.4 5.1 0.9 -0.4 0.5 0 1.2 0.6 1.5 1 0.5 1 0.7 0.1 1.2 -0.7 0.3 -1.3 1.2 -1.3 2 0 0.8 -0.5 1.4 -1.1 1.4 -0.5 0 -0.8 -0.4 -0.4 -0.9 0.3 -0.5 -0.1 -1.6 -0.9 -2.4 -0.8 -0.8 -1.2 -1.8 -0.8 -2.2 0.4 -0.4 -0.5 -0.1 -2 0.6 -2.3 1 -2.6 1.5 -1.5 2.7 1 1.3 0.9 1.5 -0.5 0.9 -1 -0.3 -1.8 -0.2 -1.8 0.3 0 0.6 -0.7 1 -1.5 1 -0.9 0 -1.2 -0.6 -0.9 -1.5z"/>
  <path d="M35.8 44.1 c0.8 -0.4 1.2 -1.7 1 -2.7 -0.2 -1.4 0.4 -2 2.6 -2.2 2.7 -0.3 2.8 -0.2 1.3 1.3 -1 0.9 -1.7 2.3 -1.7 3.1 0 0.8 -1 1.4 -2.2 1.4 -1.7 0 -1.9 -0.3 -1 -0.9z"/>
  <path d="M57.7 44.3 c-0.4 -0.3 -0.7 -1.7 -0.7 -3 0 -2.9 2.3 -2.6 2.9 0.3 0.2 1 0.8 2.2 1.5 2.6 0.6 0.5 0.3 0.8 -1 0.8 -1.1 0 -2.4 -0.3 -2.7 -0.7z"/>
 </g>
 <g fill="#472b29">
  <path d="M65.6 88.6 c-0.4 -1.5 -1.5 -2.6 -2.8 -2.8 -2 -0.3 -2.3 -0.9 -2.4 -6 -0.2 -5.1 0 -5.7 2 -6 1.3 -0.2 2.2 -1.1 2.4 -2.5 0.2 -1.3 0.8 -2.3 1.3 -2.3 0.6 0 0.7 -0.4 0.4 -1 -0.3 -0.6 0.1 -0.7 0.9 -0.4 0.9 0.3 1.6 1 1.6 1.5 0 1.2 3.7 1.2 4.5 -0.1 0.9 -1.5 3.3 0 3.9 2.6 0.4 1.5 1.4 2.4 2.5 2.4 2.4 0 3.1 1.9 1.7 4.3 -0.8 1.2 -0.8 2.2 0 3.5 1.4 2.3 0.7 4.2 -1.7 4.2 -1.2 0 -2.3 1 -2.9 2.5 -1 2.7 -1.7 3 -4 1.4 -1.2 -0.8 -1.1 -0.9 0.6 -0.4 1.6 0.4 2.3 0 2.7 -1.5 0.3 -1.2 1.4 -2.4 2.4 -2.6 2.8 -0.8 2.8 -10 0 -10.8 -1 -0.2 -2.1 -1.4 -2.4 -2.5 -0.6 -2.3 -1.1 -2.5 -3.2 -1.2 -0.9 0.6 -2.4 0.6 -3.8 0 -2 -0.7 -2.5 -0.5 -3.3 1.6 -0.6 1.5 -1.7 2.5 -3 2.5 -2.3 0 -2.6 1 -0.8 2.8 0.9 0.9 0.9 1.8 0 3.7 -1.6 3.4 -1.5 3.5 0.8 3.5 1.2 0 2.5 1 3.2 2.5 0.8 1.9 1.7 2.4 3.2 1.9 1.7 -0.4 1.8 -0.3 0.6 0.5 -2.4 1.7 -3.7 1.3 -4.4 -1.3z"/>
  <path d="M47.8 86.3 c1.2 -0.2 3 -0.2 4 0 0.9 0.3 -0.1 0.5 -2.3 0.4 -2.2 0 -3 -0.2 -1.7 -0.4z"/>
  <path d="M68.4 81.5 c-1 -2.5 0.4 -4.5 3 -4.5 2.5 0 3.9 2 3 4.5 -0.4 0.8 -1.7 1.5 -3 1.5 -1.4 0 -2.7 -0.7 -3 -1.5z m4.6 -1.5 c0 -2.1 -2.4 -2.8 -3.5 -1 -0.8 1.4 0.3 3 2.1 3 0.8 0 1.4 -0.9 1.4 -2z"/>
  <path d="M28.1 74.2 c0 -1.8 0.4 -4.2 1 -5.4 1 -1.9 7.7 -5.4 8.6 -4.5 0.2 0.3 -1.2 1 -3.1 1.7 -4.2 1.4 -4.8 2.2 -5.7 7.5 -0.6 3.9 -0.7 3.9 -0.8 0.7z"/>
  <path d="M56.3 64 c-3.4 -1.4 -2.8 -2.1 0.7 -0.9 1.7 0.6 3 1.3 3 1.5 0 0.6 -1.2 0.4 -3.7 -0.6z"/>
  <path d="M40.3 62.9 c1.7 -1 2.4 -3.9 0.9 -3.9 -0.4 0 -1.3 -1 -2.1 -2.2 l-1.4 -2.3 2.6 2.3 c2.8 2.7 8.8 3.6 12.9 2.1 1.4 -0.6 3.9 -3 5.4 -5.5 1.5 -2.4 2.9 -4.2 3.2 -4 0.9 0.9 -6.7 10.1 -9.8 11.9 -2.7 1.5 -3.8 1.6 -5.7 0.8 -1.9 -0.9 -2.8 -0.8 -3.9 0.4 -0.9 0.8 -2.1 1.5 -2.7 1.5 -0.7 0 -0.4 -0.5 0.6 -1.1z"/>
  <path d="M62 46.2 c0 -0.7 -0.9 -1.2 -2.1 -1.2 -1.1 0 -1.7 -0.4 -1.4 -1 0.3 -0.5 0.1 -1 -0.4 -1 -0.6 0 -1.1 -0.9 -1.1 -2 0 -2.1 -1.4 -2.7 -2.4 -1.1 -0.4 0.5 0 1.2 0.6 1.4 0.7 0.3 -0.2 0.6 -2 0.6 -2.2 0.1 -3.1 -0.3 -2.6 -1 0.5 -0.8 0.1 -0.8 -1.4 0 -1.1 0.6 -3.6 1.1 -5.4 1 -1.8 0 -2.7 -0.3 -2 -0.6 0.6 -0.2 1.2 -0.9 1.2 -1.4 0 -1.5 -2.7 0.2 -4 2.6 -1.2 2.3 -5 4.1 -5 2.4 0 -0.5 0.6 -0.9 1.4 -0.9 1 0 1.3 -1.4 1.1 -5.7 -0.4 -7.2 2 -11.3 6.6 -11.3 1.6 0 2.9 -0.5 2.9 -1.1 0 -1.6 9 -0.1 11.1 1.7 2 1.8 3.2 6.6 2.9 11.7 -0.1 2.7 0.4 4.2 1.7 5.2 1 0.7 1.5 1.7 1 2.1 -0.4 0.4 -0.7 0.2 -0.7 -0.4z"/>
  <path d="M42.6 44.5 c0.4 -0.8 1 -1.2 1.5 -0.9 1.4 0.8 1 2.4 -0.6 2.4 -0.9 0 -1.2 -0.6 -0.9 -1.5z"/>
 </g>
</svg>