<?xml version="1.0" standalone="no"?>
<!DOCTYPE svg PUBLIC "-//W3C//DTD SVG 20010904//EN"
 "http://www.w3.org/TR/2001/REC-SVG-20010904/DTD/svg10.dtd">
<svg version="1.0" xmlns="http://www.w3.org/2000/svg"
 width="459.000000pt" height="304.000000pt" viewBox="0 0 459.000000 304.000000"
 preserveAspectRatio="xMidYMid meet">

<g transform="translate(0.000000,304.000000) scale(0.100000,-0.100000)"
fill="#1d1919" stroke="none">
<path d="M874 2742 c-92 -51 -210 -148 -246 -204 -20 -29 -61 -102 -93 -163
-32 -60 -107 -184 -166 -275 -58 -91 -122 -196 -142 -235 -93 -186 -108 -355
-46 -520 19 -52 23 -55 92 -88 40 -19 86 -46 102 -59 111 -92 366 -171 594
-185 89 -5 134 -1 281 26 30 6 96 14 145 20 114 12 239 51 306 96 63 43 79 36
24 -11 -65 -56 -209 -122 -295 -136 -41 -6 -77 -13 -79 -15 -3 -2 7 -16 21
-31 14 -15 68 -83 119 -152 300 -405 487 -573 677 -610 42 -9 67 -9 73 -3 7 7
3 44 -11 109 -31 142 -37 456 -16 760 20 295 21 474 1 540 -17 59 -60 104
-130 136 -43 20 -65 23 -155 22 -156 -2 -267 -41 -550 -196 -95 -52 -179 -78
-254 -78 -65 0 -49 12 44 34 81 18 216 80 265 120 l30 24 -30 12 c-98 38 -183
53 -315 54 -113 1 -148 -3 -213 -22 -121 -35 -184 -72 -250 -146 -58 -66 -118
-109 -169 -121 -43 -11 -33 7 18 34 81 43 163 158 210 296 27 77 28 87 29 298
l1 217 -28 -27 c-39 -37 -46 -22 -12 26 50 69 69 75 216 68 70 -4 135 -4 143
0 30 11 145 165 145 193 0 54 -89 144 -197 199 -55 28 -78 26 -139 -7z"/>
<path d="M3574 2742 c-110 -61 -184 -139 -184 -192 0 -27 44 -89 117 -167 l31
-33 125 6 c68 4 135 4 149 1 39 -10 120 -99 104 -114 -3 -4 -19 5 -34 20 l-27
26 -3 -184 c-3 -158 0 -195 18 -271 37 -157 118 -287 218 -351 59 -38 64 -46
25 -37 -53 12 -112 54 -174 123 -66 75 -133 113 -255 145 -141 38 -349 28
-489 -25 l-57 -21 28 -24 c48 -40 184 -103 268 -124 44 -11 82 -23 85 -26 11
-12 -134 5 -184 21 -27 9 -108 49 -180 88 -281 155 -498 201 -643 137 -97 -43
-136 -107 -166 -272 -65 -351 -82 -983 -32 -1193 18 -73 36 -88 96 -80 199 30
388 197 708 626 56 75 108 142 117 149 23 19 18 30 -12 30 -87 0 -265 74 -348
144 -47 40 -41 59 7 22 77 -58 216 -102 365 -115 54 -5 139 -17 188 -26 210
-40 584 31 742 142 30 21 88 56 130 78 42 23 85 52 94 65 29 40 53 147 53 240
0 161 -49 282 -222 548 -60 92 -135 217 -167 277 -93 178 -119 211 -222 287
-96 71 -163 108 -198 108 -11 0 -43 -13 -71 -28z"/>
</g>
</svg>
