<?xml version="1.0" encoding="UTF-8" standalone="no"?>
<svg
   xmlns:dc="http://purl.org/dc/elements/1.1/"
   xmlns:cc="http://creativecommons.org/ns#"
   xmlns:rdf="http://www.w3.org/1999/02/22-rdf-syntax-ns#"
   xmlns:svg="http://www.w3.org/2000/svg"
   xmlns="http://www.w3.org/2000/svg"
   viewBox="0 0 448 447.91159"
   height="447.91159"
   width="448"
   id="svg80"
   version="1.1">
  <metadata
     id="metadata86">
    <rdf:RDF>
      <cc:Work
         rdf:about="">
        <dc:format>image/svg+xml</dc:format>
        <dc:type
           rdf:resource="http://purl.org/dc/dcmitype/StillImage" />
        <dc:title></dc:title>
      </cc:Work>
    </rdf:RDF>
  </metadata>
  <defs
     id="defs84" />
  <g
     transform="translate(-199.84892,-91.395682)"
     id="g154">
    <path
       id="path168"
       d="m 422.84892,539.30158 c -14.61454,-0.0594 -24.06723,-0.62276 -32.92524,-1.9624 -6.83389,-1.03353 -18.08743,-3.42435 -25.00789,-5.31294 -6.92046,-1.88859 -16.8541,-5.10862 -22.07476,-7.15562 -5.22066,-2.04701 -14.7394,-6.3815 -21.15274,-9.63221 -6.41335,-3.25071 -16.31335,-9.01217 -22,-12.80325 -5.68666,-3.79108 -14.65247,-10.49376 -19.92404,-14.89485 -5.27157,-4.4011 -13.74152,-12.39427 -18.82211,-17.76262 -5.08059,-5.36834 -12.33237,-13.87833 -16.11507,-18.91108 -3.7827,-5.03276 -9.10801,-12.74655 -11.83401,-17.14177 -2.726,-4.39522 -7.18718,-12.45483 -9.91373,-17.91023 -2.72655,-5.45541 -6.6313,-14.17328 -8.67724,-19.37303 -2.04593,-5.19976 -5.2582,-15.067 -7.13837,-21.92721 -1.88018,-6.86021 -4.31523,-18.58087 -5.41123,-26.0459 -1.45816,-9.9317 -1.99273,-18.80394 -1.99273,-33.07279 0,-14.26885 0.53457,-23.14109 1.99273,-33.07279 1.096,-7.46503 3.53105,-19.18569 5.41123,-26.0459 1.88017,-6.86021 5.09244,-16.72745 7.13837,-21.92721 2.04594,-5.19975 5.95069,-13.91762 8.67724,-19.37303 2.72655,-5.4554 7.18773,-13.51501 9.91373,-17.91023 2.726,-4.39522 8.05131,-12.10901 11.83401,-17.14177 3.7827,-5.03275 11.03448,-13.54274 16.11507,-18.91108 5.08059,-5.36835 13.55054,-13.36152 18.82211,-17.76262 5.27157,-4.40109 14.23738,-11.10377 19.92404,-14.89485 5.68665,-3.79108 15.58665,-9.55254 22,-12.80325 6.41334,-3.25071 15.91498,-7.57844 21.11473,-9.61718 5.19976,-2.03873 15.067,-5.24512 21.92721,-7.125288 6.86021,-1.88018 18.58087,-4.31523 26.0459,-5.411232 9.9317,-1.458153 18.80394,-1.992731 33.07279,-1.992731 14.26885,0 23.14109,0.534578 33.07279,1.992731 7.46503,1.096002 19.18569,3.531052 26.0459,5.411232 6.86021,1.880168 16.72745,5.092438 21.92721,7.138368 5.19975,2.04594 13.91762,5.95069 19.37303,8.67724 5.4554,2.72655 13.51501,7.18773 17.91023,9.91373 4.39522,2.726 12.10901,8.05131 17.14177,11.83401 5.03275,3.7827 13.54274,11.03448 18.91108,16.11507 5.36835,5.08059 13.36152,13.55054 17.76262,18.82211 4.40109,5.27157 11.10377,14.23738 14.89485,19.92404 3.79108,5.68665 9.55254,15.58665 12.80325,22 3.25071,6.41334 7.57844,15.91498 9.61718,21.11473 2.03873,5.19976 5.24512,15.067 7.12529,21.92721 1.88018,6.86021 4.31523,18.58087 5.41123,26.0459 1.45816,9.9317 1.99273,18.80394 1.99273,33.07279 0,14.26885 -0.53457,23.14109 -1.99273,33.07279 -1.096,7.46503 -3.53105,19.18569 -5.41123,26.0459 -1.88017,6.86021 -5.09244,16.72745 -7.13837,21.92721 -2.04594,5.19975 -5.95069,13.91762 -8.67724,19.37303 -2.72655,5.4554 -7.18773,13.51501 -9.91373,17.91023 -2.726,4.39522 -8.05131,12.10901 -11.83401,17.14177 -3.7827,5.03275 -11.03448,13.54274 -16.11507,18.91108 -5.08059,5.36835 -13.55054,13.36152 -18.82211,17.76262 -5.27157,4.40109 -14.23738,11.10377 -19.92404,14.89485 -5.68665,3.79108 -15.58665,9.55254 -22,12.80325 -6.41334,3.25071 -15.91498,7.57844 -21.11473,9.61718 -5.19976,2.03873 -15.067,5.24512 -21.92721,7.12529 -6.86021,1.88018 -18.58087,4.31523 -26.0459,5.41123 -10.34151,1.51832 -18.45323,1.97291 -34.07279,1.90947 z m -29,-128.42955 c 2.475,-0.27208 6.75,-1.21528 9.5,-2.09599 4.61216,-1.47709 10.40176,-7.00306 74.63953,-71.24083 66.36377,-66.36378 69.7247,-69.89824 71.4502,-75.13953 0.99586,-3.025 1.81066,-7.975 1.81066,-11 0,-3.025 -0.83714,-7.97056 -1.86032,-10.99012 -1.34858,-3.9799 -3.4007,-7.03051 -7.46007,-11.08988 -4.05937,-4.05937 -7.10998,-6.11149 -11.08988,-7.46007 -3.01956,-1.02318 -7.96512,-1.86032 -10.99012,-1.86032 -3.025,0 -7.975,0.81849 -11,1.81887 -5.20494,1.72129 -8.49013,4.80153 -61.23719,57.4168 l -55.7372,55.59794 -23.7628,-23.58084 c -21.61915,-21.45359 -24.25897,-23.74646 -29.26281,-25.4168 -3.025,-1.00979 -7.975,-1.83597 -11,-1.83597 -3.025,0 -7.97056,0.83714 -10.99012,1.86032 -3.9799,1.34858 -7.03051,3.4007 -11.08988,7.46007 -4.05937,4.05937 -6.11149,7.10998 -7.46007,11.08988 -1.02318,3.01956 -1.86032,7.96512 -1.86032,10.99012 0,3.025 0.82163,7.975 1.82586,11 1.70119,5.12449 4.29226,7.9788 37.95019,41.8059 19.86839,19.96825 37.51096,37.17055 39.20571,38.22734 1.69475,1.05679 5.51975,2.60012 8.5,3.42962 3.05354,0.84991 7.38276,1.29227 9.91863,1.01349 z"
       style="fill:#ffff" />
    <path
       id="path166"
       d="m 427.84892,538.91642 c -12.375,0.1818 -23.625,0.14021 -25,-0.0924 -1.375,-0.23262 -6.55,-0.92774 -11.5,-1.54471 -4.95,-0.61697 -14.175,-2.38898 -20.5,-3.93779 -6.325,-1.54882 -16.225,-4.45365 -22,-6.45519 -5.775,-2.00154 -16.48123,-6.58403 -23.79161,-10.18332 -7.31039,-3.59928 -18.56039,-10.03669 -25,-14.30534 -6.43962,-4.26866 -16.77273,-12.12134 -22.96248,-17.45041 -6.18975,-5.32907 -14.91606,-13.82075 -19.39181,-18.8704 -4.47575,-5.04965 -10.51347,-12.33118 -13.41715,-16.18118 -2.90369,-3.85 -7.81847,-11.05 -10.92175,-16 -3.10327,-4.95 -8.2757,-14.4 -11.49428,-21 -3.21858,-6.6 -7.47673,-16.68982 -9.46256,-22.42182 -1.98583,-5.732 -4.70807,-14.75132 -6.04943,-20.04294 -1.34136,-5.29163 -3.22532,-14.10181 -4.18659,-19.57819 -1.35767,-7.7347 -1.74776,-15.64849 -1.74776,-35.45705 0,-19.80856 0.39009,-27.72235 1.74776,-35.45705 0.96127,-5.47638 2.84523,-14.28656 4.18659,-19.57819 1.34136,-5.29162 4.0074,-14.12751 5.92454,-19.63531 1.91714,-5.5078 5.50336,-14.36134 7.96939,-19.67454 2.46602,-5.31319 6.93638,-13.82162 9.93413,-18.90763 2.99776,-5.086 8.08579,-12.92598 11.30674,-17.42217 3.22095,-4.49619 9.98659,-12.87664 15.03475,-18.62322 5.04817,-5.74659 14.27317,-14.83457 20.5,-20.19551 6.22684,-5.36094 16.59029,-13.2397 23.02991,-17.50836 6.43961,-4.26865 17.68961,-10.70606 25,-14.30534 7.31038,-3.59929 17.98143,-8.16433 23.71343,-10.14454 5.732,-1.98021 14.75132,-4.697848 20.04294,-6.039208 5.29163,-1.34136 14.10181,-3.225321 19.57819,-4.186588 7.7347,-1.35767 15.64849,-1.747759 35.45705,-1.747759 19.80856,0 27.72235,0.390089 35.45705,1.747759 5.47638,0.961267 14.28656,2.845228 19.57819,4.186588 5.29162,1.34136 14.31094,4.058998 20.04294,6.039208 5.732,1.98021 16.40305,6.54525 23.71343,10.14454 7.31039,3.59928 18.56039,10.03669 25,14.30534 6.43962,4.26866 16.77273,12.12134 22.96248,17.45041 6.18975,5.32907 14.91606,13.82075 19.39181,18.8704 4.47575,5.04964 10.51347,12.33117 13.41715,16.18117 2.90369,3.85 7.81847,11.05 10.92175,16 3.10327,4.95 8.2757,14.4 11.49428,21 3.21858,6.6 7.47673,16.68982 9.46256,22.42182 1.98583,5.732 4.70807,14.75132 6.04943,20.04294 1.34136,5.29163 3.22532,14.10181 4.18659,19.57819 1.35767,7.7347 1.74776,15.64849 1.74776,35.45705 0,19.80856 -0.39009,27.72235 -1.74776,35.45705 -0.96127,5.47638 -2.84178,14.25138 -4.17891,19.5 -1.33713,5.24862 -3.74312,13.36795 -5.34664,18.04295 -1.60352,4.675 -4.73777,12.66872 -6.965,17.76381 -2.22723,5.0951 -6.79692,14.0951 -10.15487,20 -3.35796,5.90491 -8.90142,14.6403 -12.31881,19.412 -3.41738,4.7717 -10.34375,13.37715 -15.39191,19.12322 -5.04817,5.74608 -14.27317,14.83365 -20.5,20.19459 -6.22684,5.36094 -16.59029,13.2397 -23.02991,17.50836 -6.43961,4.26865 -17.68961,10.70606 -25,14.30534 -7.31038,3.59929 -17.98143,8.16433 -23.71343,10.14454 -5.732,1.98021 -14.73827,4.69454 -20.01393,6.03185 -5.27567,1.33732 -13.86085,3.16836 -19.07819,4.06899 -6.27795,1.08372 -17.09538,1.74929 -31.98606,1.96804 z M 393.48808,411.04837 c 3.77978,-0.2491 8.39158,-1.42949 12,-3.0714 5.21266,-2.37186 13.29369,-10.09965 73.06808,-69.87405 59.90431,-59.90431 67.51,-67.85922 69.99345,-73.20724 2.26726,-4.8825 2.78619,-7.39688 2.78619,-13.5 0,-5.99485 -0.52444,-8.62113 -2.61325,-13.08648 -1.43729,-3.07257 -4.32043,-7.29365 -6.40696,-9.38019 -2.08654,-2.08653 -6.30762,-4.96967 -9.38019,-6.40696 -4.46535,-2.08881 -7.09163,-2.61325 -13.08648,-2.61325 -6.11336,0 -8.60931,0.51676 -13.5,2.79506 -5.29635,2.46726 -12.36054,9.14707 -60.23604,56.95835 l -54.23605,54.16329 -22.3247,-22.18359 c -18.41926,-18.30284 -23.3637,-22.669 -28.26396,-24.95835 -4.83408,-2.25844 -7.33484,-2.77476 -13.43925,-2.77476 -5.99485,0 -8.62113,0.52444 -13.08648,2.61325 -3.07257,1.43729 -7.29365,4.32043 -9.38019,6.40696 -2.08653,2.08654 -4.96967,6.30762 -6.40696,9.38019 -2.08881,4.46535 -2.61325,7.09163 -2.61325,13.08648 0,6.12051 0.51504,8.60264 2.80019,13.4948 2.40728,5.15364 7.52788,10.73618 36.49344,39.7856 18.53129,18.58494 35.40318,34.97652 37.49309,36.42574 2.08991,1.44921 6.13991,3.47108 9,4.49304 3.65109,1.3046 7.02895,1.73758 11.33932,1.45351 z"
       style="fill:#b0f2b0" />
    <path
       id="path164"
       d="m 427.84892,538.88821 c -11.825,0.17219 -23.075,0.12445 -25,-0.10608 -1.925,-0.23052 -8,-1.09995 -13.5,-1.93207 -5.5,-0.83211 -14.48839,-2.6457 -19.97419,-4.0302 -5.4858,-1.3845 -14.0358,-3.89599 -19,-5.58109 -4.9642,-1.6851 -15.77581,-6.32318 -24.02581,-10.30684 -8.25,-3.98366 -19.725,-10.3832 -25.5,-14.22118 -5.775,-3.83799 -13.90875,-9.72714 -18.075,-13.087 -4.16625,-3.35986 -11.95558,-10.48942 -17.30962,-15.84345 -5.35403,-5.35404 -12.48359,-13.14337 -15.84345,-17.30962 -3.35986,-4.16625 -9.24901,-12.3 -13.087,-18.075 -3.83798,-5.775 -10.23752,-17.25 -14.22118,-25.5 -3.98366,-8.25 -8.62174,-19.06161 -10.30684,-24.02581 -1.6851,-4.9642 -4.1946,-13.5142 -5.57666,-19 -1.38206,-5.4858 -3.29748,-14.47419 -4.25647,-19.97419 -1.33863,-7.67721 -1.74364,-15.69084 -1.74364,-34.5 0,-18.80916 0.40501,-26.82279 1.74364,-34.5 0.95899,-5.5 2.87441,-14.48839 4.25647,-19.97419 1.38206,-5.4858 3.89156,-14.0358 5.57666,-19 1.6851,-4.9642 6.32318,-15.77581 10.30684,-24.02581 3.98366,-8.25 10.3832,-19.725 14.22118,-25.5 3.83799,-5.775 9.72714,-13.90875 13.087,-18.075 3.35986,-4.16625 10.48942,-11.95558 15.84345,-17.30962 5.35404,-5.35403 13.14337,-12.48359 17.30962,-15.84345 4.16625,-3.35986 12.3,-9.24901 18.075,-13.087 5.775,-3.83798 17.25,-10.23752 25.5,-14.22118 8.25,-3.98366 19.06161,-8.62174 24.02581,-10.30684 4.9642,-1.6851 13.5142,-4.194598 19,-5.576658 5.4858,-1.38206 14.47419,-3.297476 19.97419,-4.256474 7.67721,-1.338624 15.69084,-1.743634 34.5,-1.743634 18.80916,0 26.82279,0.40501 34.5,1.743634 5.5,0.958998 14.48839,2.874414 19.97419,4.256474 5.4858,1.38206 14.0358,3.891558 19,5.576658 4.9642,1.6851 15.77581,6.32318 24.02581,10.30684 8.25,3.98366 19.725,10.3832 25.5,14.22118 5.775,3.83799 13.90875,9.72714 18.075,13.087 4.16625,3.35986 11.95558,10.48942 17.30962,15.84345 5.35403,5.35404 12.48359,13.14337 15.84345,17.30962 3.35986,4.16625 9.24901,12.3 13.087,18.075 3.83798,5.775 10.23752,17.25 14.22118,25.5 3.98366,8.25 8.62174,19.06161 10.30684,24.02581 1.6851,4.9642 4.1946,13.5142 5.57666,19 1.38206,5.4858 3.29748,14.47419 4.25647,19.97419 1.33863,7.67721 1.74364,15.69084 1.74364,34.5 0,18.80916 -0.40501,26.82279 -1.74364,34.5 -0.95899,5.5 -2.87441,14.48839 -4.25647,19.97419 -1.38206,5.4858 -3.89156,14.0358 -5.57666,19 -1.6851,4.9642 -6.32318,15.77581 -10.30684,24.02581 -3.98366,8.25 -10.3832,19.725 -14.22118,25.5 -3.83799,5.775 -9.72714,13.90875 -13.087,18.075 -3.35986,4.16625 -10.48942,11.95558 -15.84345,17.30962 -5.35404,5.35403 -13.14337,12.48359 -17.30962,15.84345 -4.16625,3.35986 -12.3,9.24901 -18.075,13.087 -5.775,3.83798 -17.25,10.23752 -25.5,14.22118 -8.25,3.98366 -19.06161,8.62174 -24.02581,10.30684 -4.9642,1.6851 -13.5142,4.19398 -19,5.57529 -5.4858,1.38131 -14.24919,3.24263 -19.47419,4.13628 -6.13944,1.05005 -17.10547,1.73556 -31,1.93787 z M 394.09994,410.91414 c 5.10537,-0.30421 8.16454,-1.15566 12.54974,-3.49295 4.70017,-2.50516 18.5006,-15.82487 72.84561,-70.3081 53.65359,-53.79005 67.51684,-68.21621 69.39946,-72.21741 1.89342,-4.02416 2.35257,-6.65894 2.35257,-13.5 0,-6.95585 -0.4406,-9.40833 -2.42534,-13.5 -1.33394,-2.75 -4.23608,-6.81074 -6.4492,-9.02386 -2.21312,-2.21312 -6.27386,-5.11526 -9.02386,-6.4492 -4.09167,-1.98474 -6.54415,-2.42534 -13.5,-2.42534 -6.84538,0 -9.4733,0.45847 -13.5,2.35523 -3.96416,1.86731 -16.3396,13.65817 -59.73644,56.9147 l -54.73645,54.55946 -22.76355,-22.5403 c -16.72132,-16.55732 -24.09073,-23.17054 -27.76356,-24.91469 -4.04484,-1.92081 -6.62377,-2.3744 -13.5,-2.3744 -6.95585,0 -9.40833,0.4406 -13.5,2.42534 -2.75,1.33394 -6.81074,4.23608 -9.02386,6.4492 -2.21312,2.21312 -5.11526,6.27386 -6.4492,9.02386 -1.98474,4.09167 -2.42534,6.54415 -2.42534,13.5 0,6.8579 0.4565,9.46594 2.36297,13.5 1.82007,3.85123 10.39667,13.07861 37.32947,40.16197 24.35303,24.48918 36.5017,35.99753 40.02427,37.91476 2.78178,1.51403 6.43566,3.11081 8.11973,3.54839 1.68408,0.43759 6.09992,0.61459 9.81298,0.39334 z"
       style="fill:#fffff" />
    <path
       id="path162"
       d="m 421.92524,539.26098 c -6.91697,-0.0741 -16.62632,-0.54246 -21.57632,-1.04084 -4.95,-0.49838 -14.58072,-2.02918 -21.4016,-3.40178 -6.82087,-1.3726 -18.46903,-4.52275 -25.88478,-7.00033 -7.41576,-2.47758 -18.10425,-6.68444 -23.7522,-9.34857 -5.64796,-2.66413 -14.52838,-7.35064 -19.73427,-10.41447 -5.20589,-3.06384 -14.13669,-9.03308 -19.8462,-13.26499 -5.70952,-4.23191 -16.50094,-13.81437 -23.98092,-21.29435 -7.47998,-7.47998 -17.06244,-18.2714 -21.29435,-23.98092 -4.23191,-5.70951 -10.20115,-14.64031 -13.26499,-19.8462 -3.06383,-5.20589 -7.75034,-14.08631 -10.41447,-19.73427 -2.66413,-5.64795 -6.87099,-16.33644 -9.34857,-23.7522 -2.47758,-7.41575 -5.61777,-19.06391 -6.97819,-25.88478 -1.36043,-6.82088 -2.95185,-17.31725 -3.53648,-23.32528 -0.58464,-6.00802 -1.06298,-15.71737 -1.06298,-21.57632 0,-5.85895 0.47834,-15.5683 1.06298,-21.57632 0.58463,-6.00803 2.17605,-16.5044 3.53648,-23.32528 1.36042,-6.82087 4.50061,-18.46903 6.97819,-25.88478 2.47758,-7.41576 6.68444,-18.10425 9.34857,-23.7522 2.66413,-5.64796 7.35064,-14.52838 10.41447,-19.73427 3.06384,-5.20589 9.03308,-14.13669 13.26499,-19.8462 4.23191,-5.70952 13.81437,-16.50094 21.29435,-23.98092 7.47998,-7.47998 18.2714,-17.06244 23.98092,-21.29435 5.70951,-4.23191 14.64031,-10.20115 19.8462,-13.26499 5.20589,-3.06383 14.08631,-7.75034 19.73427,-10.41447 5.64795,-2.66413 16.33644,-6.87099 23.7522,-9.34857 7.41575,-2.47758 19.06391,-5.617768 25.88478,-6.978188 6.82088,-1.360429 17.31725,-2.951845 23.32528,-3.536483 6.00802,-0.584637 15.71737,-1.062977 21.57632,-1.062977 5.85895,0 15.5683,0.47834 21.57632,1.062977 6.00803,0.584638 16.5044,2.176054 23.32528,3.536483 6.82087,1.36042 18.46903,4.500608 25.88478,6.978188 7.41576,2.47758 18.10425,6.68444 23.7522,9.34857 5.64796,2.66413 14.52838,7.35064 19.73427,10.41447 5.20589,3.06384 14.13669,9.03308 19.8462,13.26499 5.70952,4.23191 16.50094,13.81437 23.98092,21.29435 7.47998,7.47998 17.06244,18.2714 21.29435,23.98092 4.23191,5.70951 10.20115,14.64031 13.26499,19.8462 3.06383,5.20589 7.75034,14.08631 10.41447,19.73427 2.66413,5.64795 6.87099,16.33644 9.34857,23.7522 2.47758,7.41575 5.61777,19.06391 6.97819,25.88478 1.36043,6.82088 2.95185,17.31725 3.53648,23.32528 0.58464,6.00802 1.06298,15.71737 1.06298,21.57632 0,5.85895 -0.47834,15.5683 -1.06298,21.57632 -0.58463,6.00803 -2.17605,16.5044 -3.53648,23.32528 -1.36042,6.82087 -4.50061,18.46903 -6.97819,25.88478 -2.47758,7.41576 -6.68444,18.10425 -9.34857,23.7522 -2.66413,5.64796 -7.35064,14.52838 -10.41447,19.73427 -3.06384,5.20589 -9.03308,14.13669 -13.26499,19.8462 -4.23191,5.70952 -13.81437,16.50094 -21.29435,23.98092 -7.47998,7.47998 -18.2714,17.06244 -23.98092,21.29435 -5.70951,4.23191 -14.64031,10.20115 -19.8462,13.26499 -5.20589,3.06383 -14.08631,7.75034 -19.73427,10.41447 -5.64795,2.66413 -16.33644,6.87099 -23.7522,9.34857 -7.41575,2.47758 -19.06391,5.61777 -25.88478,6.97819 -6.82088,1.36043 -17.31725,2.95185 -23.32528,3.53648 -6.00802,0.58464 -16.58302,1.00236 -23.5,0.92828 z M 393.52167,411.04381 c 5.21153,-0.24547 8.62937,-1.05382 12.5,-2.95639 4.33709,-2.13185 17.99099,-15.31079 73.46055,-70.90514 64.59923,-64.74458 68.24309,-68.5868 70.25,-74.07411 1.26623,-3.46216 2.1167,-8.1681 2.1167,-11.71249 0,-3.61751 -0.83879,-8.16684 -2.15379,-11.6815 -1.45974,-3.9015 -3.80601,-7.40873 -7.28099,-10.88372 -3.47499,-3.47498 -6.98222,-5.82125 -10.88372,-7.28099 -3.51466,-1.315 -8.06399,-2.15379 -11.6815,-2.15379 -3.5489,0 -8.24592,0.84989 -11.71249,2.11929 -5.45608,1.99794 -8.95071,5.27448 -61.02434,57.21607 l -55.23682,55.09676 -23.26318,-23.07887 c -20.98063,-20.81441 -23.83103,-23.28857 -29.05068,-25.21606 -3.4967,-1.29125 -8.13274,-2.13719 -11.71249,-2.13719 -3.61751,0 -8.16684,0.83879 -11.6815,2.15379 -3.9015,1.45974 -7.40873,3.80601 -10.88372,7.28099 -3.47498,3.47499 -5.82125,6.98222 -7.28099,10.88372 -1.315,3.51466 -2.15379,8.06399 -2.15379,11.6815 0,3.56149 0.84829,8.23362 2.12656,11.71249 1.97032,5.36229 4.74388,8.41824 37.75,41.59358 19.59289,19.69334 37.11932,36.73817 38.94762,37.87741 1.82829,1.13923 5.20329,2.68584 7.5,3.43691 2.49307,0.81529 7.06625,1.22944 11.34857,1.02774 z"
       style="fill:#6fe86f" />
    <path
       id="path160"
       d="m 428.84892,538.82207 c -8.525,0.19781 -17.75,0.17276 -20.5,-0.0557 -2.75,-0.22843 -10.15251,-1.10832 -16.45001,-1.95531 -6.29751,-0.84699 -17.43665,-3.07434 -24.75366,-4.94966 -7.317,-1.87532 -18.04547,-5.26364 -23.84104,-7.5296 -5.79557,-2.26595 -15.18536,-6.48157 -20.86619,-9.36803 -5.68084,-2.88646 -14.99986,-8.29782 -20.70895,-12.02525 -5.70908,-3.7274 -13.53015,-9.28364 -17.38015,-12.34718 -3.85,-3.06353 -10.99761,-9.42332 -15.88358,-14.13286 -4.88597,-4.70954 -12.28342,-12.6128 -16.43876,-17.5628 -4.15535,-4.95 -11.09593,-14.4 -15.42352,-21 -4.32759,-6.6 -10.48894,-17.4 -13.69189,-24 -3.20295,-6.6 -7.25504,-15.77002 -9.00463,-20.37782 -1.7496,-4.6078 -4.70028,-14.30529 -6.55706,-21.54998 -1.85679,-7.2447 -4.15988,-18.54968 -5.11797,-25.12219 -1.18788,-8.14885 -1.74199,-18.15273 -1.74199,-31.45001 0,-13.29728 0.55411,-23.30116 1.74199,-31.45001 0.95809,-6.57251 3.27634,-17.93665 5.15166,-25.25366 1.87532,-7.317 5.26364,-18.04547 7.5296,-23.84104 2.26595,-5.79557 6.48157,-15.18536 9.36803,-20.86619 2.88646,-5.68084 8.29782,-14.99986 12.02525,-20.70895 3.72743,-5.70908 9.28367,-13.53015 12.34721,-17.38015 3.06353,-3.85 9.42332,-10.99761 14.13286,-15.88358 4.70954,-4.88597 12.6128,-12.28342 17.5628,-16.43876 4.95,-4.15535 14.4,-11.09593 21,-15.42352 6.6,-4.32759 17.4,-10.48894 24,-13.69189 6.6,-3.20295 15.77002,-7.25504 20.37782,-9.00463 4.6078,-1.7496 14.30529,-4.70028 21.54998,-6.557058 7.2447,-1.85679 18.54968,-4.159877 25.12219,-5.117972 8.14885,-1.187883 18.15273,-1.741989 31.45001,-1.741989 13.29728,0 23.30116,0.554106 31.45001,1.741989 6.57251,0.958095 17.87749,3.261182 25.12219,5.117972 7.24469,1.856778 16.94218,4.807458 21.54998,6.557058 4.6078,1.74959 13.77782,5.80168 20.37782,9.00463 6.6,3.20295 17.4,9.3643 24,13.69189 6.6,4.32759 16.05,11.26817 21,15.42352 4.95,4.15534 12.85326,11.55279 17.5628,16.43876 4.70954,4.88597 11.06933,12.03358 14.13286,15.88358 3.06354,3.85 8.61978,11.67107 12.34721,17.38015 3.72743,5.70909 9.13879,15.02811 12.02525,20.70895 2.88646,5.68083 7.10208,15.07062 9.36803,20.86619 2.26596,5.79557 5.65428,16.52404 7.5296,23.84104 1.87532,7.31701 4.19357,18.68115 5.15166,25.25366 1.18788,8.14885 1.74199,18.15273 1.74199,31.45001 0,13.29728 -0.55411,23.30116 -1.74199,31.45001 -0.95809,6.57251 -3.27634,17.93665 -5.15166,25.25366 -1.87532,7.317 -5.26364,18.04547 -7.5296,23.84104 -2.26595,5.79557 -6.48157,15.18536 -9.36803,20.86619 -2.88646,5.68084 -8.29782,14.99986 -12.02525,20.70895 -3.72743,5.70908 -9.28367,13.53015 -12.34721,17.38015 -3.06353,3.85 -9.42332,10.99761 -14.13286,15.88358 -4.70954,4.88597 -12.6128,12.28342 -17.5628,16.43876 -4.95,4.15535 -14.4,11.09593 -21,15.42352 -6.6,4.32759 -17.4,10.48894 -24,13.69189 -6.6,3.20295 -15.77002,7.25504 -20.37782,9.00463 -4.6078,1.7496 -14.28742,4.6957 -21.51028,6.54689 -7.22285,1.85119 -18.30283,4.08842 -24.62218,4.97163 -6.31935,0.88321 -18.46472,1.76768 -26.98972,1.96549 z m -37.28751,-127.4785 c 3.9529,0.0332 8.3175,-0.71777 12,-2.06459 5.48783,-2.0071 9.31792,-5.6402 73.96718,-70.16279 48.62119,-48.52592 68.98874,-69.50544 71,-73.1333 2.53886,-4.5795 2.82033,-6.03532 2.82033,-14.58721 0,-8.64099 -0.26567,-9.97956 -2.93808,-14.80355 -1.61594,-2.91696 -4.63316,-6.83497 -6.70494,-8.70669 -2.07177,-1.87173 -5.69964,-4.43388 -8.06192,-5.69368 -3.61008,-1.92525 -5.81013,-2.29055 -13.79506,-2.29055 -8.02183,0 -10.20019,0.36505 -14,2.34613 -3.03034,1.57991 -22.37819,20.18801 -59.24174,56.97667 l -54.74174,54.63054 -22.75826,-22.61962 c -13.8836,-13.79903 -24.51305,-23.53876 -27.25826,-24.97667 -3.80695,-1.99404 -5.9631,-2.35748 -14,-2.35982 -8.64373,-0.003 -9.97803,0.26206 -14.80355,2.93532 -2.91696,1.61594 -6.83497,4.63316 -8.70669,6.70494 -1.87173,2.07177 -4.43388,5.69964 -5.69368,8.06192 -1.92444,3.60856 -2.29099,5.81349 -2.29332,13.79506 -0.002,8.56779 0.27563,10.00221 2.83429,14.61793 1.95523,3.52718 14.07725,16.30973 39,41.12513 32.59767,32.45727 36.70519,36.21154 41.66295,38.07996 3.30354,1.245 7.981,2.09358 11.71249,2.12487 z"
       style="fill:#57e557" />
    <path
       id="path158"
       d="m 429.01925,538.82417 c -8.61868,0.20279 -17.69533,0.18707 -20.17033,-0.0349 -2.475,-0.222 -8.325,-0.87628 -13,-1.45396 -4.675,-0.57769 -13,-1.97085 -18.5,-3.09593 -5.5,-1.12508 -16.22406,-4.08108 -23.83125,-6.56889 -7.64935,-2.50161 -20.38748,-7.78036 -28.5,-11.81057 -8.06781,-4.00802 -19.39375,-10.43102 -25.16875,-14.27336 -5.775,-3.84233 -14.78944,-10.5803 -20.03208,-14.97325 -5.24264,-4.39296 -13.2787,-11.94524 -17.8579,-16.78285 -4.5792,-4.83761 -11.42767,-12.80918 -15.21883,-17.71459 -3.79115,-4.90542 -9.44363,-13.03672 -12.56106,-18.06957 -3.11743,-5.03284 -8.49034,-15.00062 -11.93979,-22.15062 -3.44946,-7.15 -7.83169,-17.53616 -9.7383,-23.08035 -1.90661,-5.5442 -4.6096,-14.7692 -6.00665,-20.5 -1.39705,-5.73081 -3.32526,-15.59465 -4.28492,-21.91965 -1.20695,-7.95494 -1.74482,-17.5112 -1.74482,-31 0,-13.4888 0.53787,-23.04506 1.74482,-31 0.95966,-6.325 2.88787,-16.18884 4.28492,-21.91965 1.39705,-5.7308 4.10004,-14.9558 6.00665,-20.5 1.90661,-5.54419 6.28884,-15.93035 9.7383,-23.08035 3.44945,-7.15 8.82236,-17.11778 11.93979,-22.15062 3.11743,-5.03285 8.76991,-13.16415 12.56106,-18.06957 3.79116,-4.90541 10.63963,-12.87698 15.21883,-17.71459 4.5792,-4.83761 12.61526,-12.38989 17.8579,-16.78285 5.24264,-4.39295 14.25708,-11.13092 20.03208,-14.97325 5.775,-3.84234 17.04472,-10.23749 25.04383,-14.21146 7.9991,-3.97396 20.1491,-9.08815 27,-11.36485 6.85089,-2.2767 16.28117,-5.029288 20.95617,-6.116848 4.675,-1.08756 13.675,-2.770044 20,-3.73885 8.02091,-1.228569 17.39933,-1.761464 31,-1.761464 13.4888,0 23.04506,0.537872 31,1.744828 6.325,0.959656 16.18884,2.887866 21.91965,4.284916 5.7308,1.39705 14.9558,4.100038 20.5,6.006648 5.54419,1.90661 15.93035,6.28884 23.08035,9.7383 7.15,3.44945 17.11778,8.82236 22.15062,11.93979 5.03285,3.11743 13.16415,8.76991 18.06957,12.56106 4.90541,3.79116 12.87698,10.63963 17.71459,15.21883 4.83761,4.5792 12.38989,12.61526 16.78285,17.8579 4.39295,5.24264 11.13092,14.25708 14.97325,20.03208 3.84234,5.775 10.23749,17.04472 14.21146,25.04383 3.97396,7.9991 9.08815,20.1491 11.36485,27 2.2767,6.85089 5.02929,16.28117 6.11685,20.95617 1.08756,4.675 2.77004,13.675 3.73885,20 1.22857,8.02091 1.76146,17.39933 1.76146,31 0,13.60067 -0.53289,22.97909 -1.76146,31 -0.96881,6.325 -2.65129,15.325 -3.73885,20 -1.08756,4.675 -3.84015,14.10528 -6.11685,20.95617 -2.2767,6.8509 -7.39089,19.0009 -11.36485,27 -3.97397,7.99911 -10.36912,19.26883 -14.21146,25.04383 -3.84233,5.775 -10.5803,14.78944 -14.97325,20.03208 -4.39296,5.24264 -11.94524,13.2787 -16.78285,17.8579 -4.83761,4.5792 -12.80918,11.42767 -17.71459,15.21883 -4.90542,3.79115 -13.03672,9.44363 -18.06957,12.56106 -5.03284,3.11743 -15.00062,8.49034 -22.15062,11.93979 -7.15,3.44946 -17.53616,7.83169 -23.08035,9.7383 -5.5442,1.90661 -14.7692,4.60801 -20.5,6.00311 -5.73081,1.3951 -15.293,3.25028 -21.24932,4.12263 -5.95631,0.87235 -17.88131,1.75201 -26.5,1.95479 z M 391.84892,411.38512 c 5.90112,-0.007 8.67251,-0.54934 13,-2.54368 4.70607,-2.16882 15.2943,-12.30804 73.35075,-70.24023 59.47949,-59.35219 68.20835,-68.4458 70.74921,-73.70553 2.35867,-4.88259 2.89861,-7.31703 2.89925,-13.07186 4.4e-4,-3.97814 -0.73039,-9.22777 -1.6706,-12 -1.17278,-3.45799 -3.48474,-6.7415 -7.75,-11.00675 -4.26525,-4.26526 -7.54876,-6.57722 -11.00675,-7.75 -2.71048,-0.91927 -7.91781,-1.67139 -11.57186,-1.67139 -3.65405,0 -8.86138,0.73289 -11.57186,1.62865 -4.45645,1.47276 -10.26292,6.94914 -60.66533,57.21661 l -55.7372,55.58796 -23.7628,-23.57082 c -20.60031,-20.43387 -24.41868,-23.78985 -28.69095,-25.21661 -2.71048,-0.90518 -7.91781,-1.64579 -11.57186,-1.64579 -3.65405,0 -8.86138,0.75212 -11.57186,1.67139 -3.45799,1.17278 -6.7415,3.48474 -11.00675,7.75 -4.26526,4.26525 -6.57722,7.54876 -7.75,11.00675 -0.91927,2.71048 -1.67139,7.91781 -1.67139,11.57186 0,3.65405 0.73593,8.86138 1.63539,11.57186 1.45428,4.38239 5.69018,9.01026 38.25,41.78959 31.40285,31.61455 37.46866,37.2725 42.61461,39.74921 4.98255,2.39807 7.27181,2.88624 13.5,2.87878 z"
       style="fill:#46e346" />
    <path
       id="path156"
       d="m 421.4537,539.25575 c -3.90763,-0.077 -11.56366,-0.50717 -17.0134,-0.95603 -5.44974,-0.44885 -14.89974,-1.76091 -21,-2.9157 -6.10026,-1.15478 -15.81638,-3.45076 -21.59138,-5.10217 -5.775,-1.65141 -14.55,-4.60535 -19.5,-6.56431 -4.95,-1.95897 -13.9066,-6.05662 -19.90356,-9.10591 -5.99696,-3.04928 -15.44696,-8.54595 -21,-12.21483 -5.55304,-3.66888 -13.69644,-9.52808 -18.09644,-13.02043 -4.4,-3.49236 -12.30446,-10.65421 -17.56547,-15.91522 -5.26101,-5.26101 -12.42286,-13.16547 -15.91522,-17.56547 -3.49235,-4.4 -9.47488,-12.725 -13.29449,-18.5 -3.81962,-5.775 -9.30981,-15.225 -12.20042,-21 -2.89062,-5.775 -6.86494,-14.55 -8.83184,-19.5 -1.96689,-4.95 -4.92588,-13.725 -6.57552,-19.5 -1.64964,-5.775 -3.93554,-15.41068 -5.07978,-21.41262 -1.14424,-6.00193 -2.58629,-17.79906 -3.20456,-26.21583 -0.84009,-11.43652 -0.8329,-18.97178 0.0285,-29.82225 0.63393,-7.98546 2.07598,-19.36333 3.20456,-25.28416 1.12859,-5.92083 3.40168,-15.49014 5.05132,-21.26514 1.64964,-5.775 4.60863,-14.55 6.57552,-19.5 1.9669,-4.95 5.94122,-13.725 8.83184,-19.5 2.89061,-5.775 8.3808,-15.225 12.20042,-21 3.81961,-5.775 9.79681,-14.1 13.28265,-18.5 3.48584,-4.4 10.87268,-12.50795 16.41521,-18.01767 5.54253,-5.50972 13.90232,-12.98983 18.57732,-16.62246 4.675,-3.63263 13.09332,-9.60824 18.70739,-13.27913 5.61406,-3.67089 16.29156,-9.60008 23.72777,-13.17598 7.43621,-3.57589 19.49289,-8.46681 26.79261,-10.86871 7.29973,-2.40189 19.27514,-5.537408 26.61204,-6.967798 7.33689,-1.430399 20.25902,-3.108987 28.71583,-3.730199 11.51333,-0.845733 19.02344,-0.839927 29.89506,0.02311 7.98546,0.633923 19.36333,2.075974 25.28416,3.204557 5.92083,1.12859 15.49014,3.40168 21.26514,5.05132 5.775,1.64964 14.55,4.60863 19.5,6.57552 4.95,1.9669 13.725,5.94122 19.5,8.83184 5.775,2.89061 15.225,8.3808 21,12.20042 5.775,3.81961 14.1,9.80214 18.5,13.29449 4.4,3.49236 12.30446,10.65421 17.56547,15.91522 5.26101,5.26101 12.42286,13.16547 15.91522,17.56547 3.49235,4.4 9.47488,12.725 13.29449,18.5 3.81962,5.775 9.30981,15.225 12.20042,21 2.89062,5.775 6.86494,14.55 8.83184,19.5 1.96689,4.95 4.92588,13.725 6.57552,19.5 1.64964,5.775 3.92893,15.37644 5.0651,21.33653 1.13616,5.96009 2.57112,17.54759 3.1888,25.75 0.83073,11.03168 0.83073,18.79526 0,29.82694 -0.61768,8.20241 -2.05264,19.78991 -3.1888,25.75 -1.13617,5.96009 -3.41546,15.56153 -5.0651,21.33653 -1.64964,5.775 -4.60214,14.55 -6.5611,19.5 -1.95897,4.95 -6.05662,13.9066 -9.10591,19.90356 -3.04928,5.99696 -8.54595,15.44696 -12.21483,21 -3.66888,5.55304 -9.52808,13.69644 -13.02043,18.09644 -3.49236,4.4 -10.65421,12.30446 -15.91522,17.56547 -5.26101,5.26101 -13.16547,12.42286 -17.56547,15.91522 -4.4,3.49235 -12.5434,9.35155 -18.09644,13.02043 -5.55304,3.66888 -15.00304,9.16555 -21,12.21483 -5.99696,3.04929 -14.95356,7.14694 -19.90356,9.10591 -4.95,1.95896 -13.725,4.91146 -19.5,6.5611 -5.775,1.64964 -15.26896,3.90819 -21.09768,5.019 -5.82873,1.11081 -16.35657,2.48729 -23.39522,3.05885 -7.03864,0.57155 -15.99469,0.97622 -19.90232,0.89926 z M 392.84892,411.1176 c 6.55177,-0.17903 9.64602,-0.77858 13.5,-2.61583 3.97954,-1.8971 18.79887,-16.18243 72.61126,-69.99483 53.73912,-53.73911 68.10138,-68.63714 70,-72.61126 1.99981,-4.18591 2.38874,-6.54677 2.38874,-14.5 0,-7.90782 -0.38757,-10.28685 -2.31252,-14.19487 -1.27189,-2.58218 -4.10919,-6.49155 -6.30513,-8.68748 -2.19593,-2.19594 -6.1053,-5.03324 -8.68748,-6.30513 -3.90802,-1.92495 -6.28705,-2.31252 -14.19487,-2.31252 -7.97488,0 -10.30269,0.38555 -14.5,2.40159 -3.91249,1.87924 -16.79535,14.15753 -59.23122,56.45163 l -54.23122,54.05005 -22.26878,-22.02176 c -15.98002,-15.80276 -23.68079,-22.70797 -27.26878,-24.45164 -4.22197,-2.05177 -6.47826,-2.42987 -14.5,-2.42987 -7.90782,0 -10.28685,0.38757 -14.19487,2.31252 -2.58218,1.27189 -6.49155,4.10919 -8.68748,6.30513 -2.19594,2.19593 -5.03324,6.1053 -6.30513,8.68748 -1.92495,3.90802 -2.31252,6.28705 -2.31252,14.19487 0,7.99624 0.38218,10.29145 2.4144,14.5 1.82062,3.77036 10.55107,13.19582 35.5,38.32606 18.19708,18.32934 35.18502,34.87721 37.75098,36.77305 2.56596,1.89585 6.39096,4.10131 8.5,4.90103 2.49728,0.94694 6.79902,1.37303 12.33462,1.22178 z"
       style="fill:#3ae13a" />
  </g>
  <path
     id="path290"
     d="m 179.68052,315.48675 c -4.81589,-2.42496 -23.2215,-19.32888 -44.3232,-40.70694 -33.43163,-33.86946 -36.184657,-37.21201 -37.410736,-45.42164 -2.840682,-19.02075 11.434036,-35.87292 30.370566,-35.85429 10.24976,0.01 15.87501,3.85393 41.57353,28.408 l 21.97421,20.99562 55.63687,-54.19463 c 30.60028,-29.80705 57.61188,-55.29265 60.02578,-56.63468 6.02912,-3.35192 18.42716,-3.18185 25.25,0.34638 8.0063,4.14022 15.75946,14.01531 17.25258,21.97436 2.89794,15.44726 2.3793,16.10804 -68.85122,87.72168 -36.99434,37.19331 -69.96244,69.29274 -73.26244,71.33207 -9.8622,6.09464 -18.88143,6.74437 -28.23594,2.03407 z"
     style="fill:#ffffff;stroke-width:2" />
  <path
     id="path292"
     d="m 179.68052,315.48675 c -12.49118,-6.28972 -79.856948,-75.30734 -81.701317,-83.7047 -5.654925,-25.7467 22.602277,-47.62086 44.370897,-34.34792 3.53851,2.15752 16.10757,13.28557 27.93127,24.72899 l 21.49762,20.80621 55.41516,-54.10011 c 30.47834,-29.75505 57.87259,-55.38768 60.87611,-56.96138 8.67322,-4.54436 23.72946,-2.22001 31.11826,4.80397 11.22714,10.6728 14.32072,21.68726 9.5928,34.1544 -2.34012,6.17067 -131.17712,136.57295 -140.86486,142.57626 -9.85012,6.10394 -18.87583,6.7574 -28.23594,2.04428 z"
     style="fill:#ffffff;stroke-width:2" />
  <path
     id="path294"
     d="m 179.68052,315.41647 c -4.923,-2.43688 -22.76128,-18.79236 -44.3458,-40.65955 -30.30316,-30.70003 -36.337073,-37.79394 -37.522831,-44.11457 -1.988554,-10.5999 1.903816,-21.67729 10.165961,-28.93155 8.26008,-7.25244 14.30105,-9.09484 25.08022,-7.64905 8.35639,1.12083 21.78963,11.81454 46.67184,37.15374 l 11.81345,12.03041 55.18655,-54.06636 c 30.3526,-29.73649 57.81059,-55.43031 61.01775,-57.09737 7.48238,-3.88929 22.76828,-2.55686 29.72926,2.59143 11.28568,8.34679 16.06322,23.64189 11.30504,36.19261 -3.13854,8.2786 -134.9751,139.84234 -144.99098,144.69095 -10.23732,4.9558 -13.85718,4.93467 -24.11046,-0.14068 z"
     style="fill:#ffffff;stroke-width:2" />
</svg>
