<?xml version="1.0" encoding="UTF-8" standalone="no"?>
<svg
   xmlns:dc="http://purl.org/dc/elements/1.1/"
   xmlns:cc="http://creativecommons.org/ns#"
   xmlns:rdf="http://www.w3.org/1999/02/22-rdf-syntax-ns#"
   xmlns:svg="http://www.w3.org/2000/svg"
   xmlns="http://www.w3.org/2000/svg"
   viewBox="0 0 186.14748 185.4584"
   height="185.4584"
   width="186.14748"
   id="svg510"
   version="1.1">
  <metadata
     id="metadata516">
    <rdf:RDF>
      <cc:Work
         rdf:about="">
        <dc:format>image/svg+xml</dc:format>
        <dc:type
           rdf:resource="http://purl.org/dc/dcmitype/StillImage" />
        <dc:title></dc:title>
      </cc:Work>
    </rdf:RDF>
  </metadata>
  <defs
     id="defs514" />
  <g
     transform="translate(-55.863676,-61.186549)"
     id="g520">
    <path
       id="path534"
       d="M 129.27542,244.95617 C 112.15878,241.2082 96.07067,232.44627 83.453724,220.00069 47.763652,184.79535 46.539967,127.21442 80.713482,91.057669 c 9.417815,-9.96437 17.178725,-15.705518 28.633558,-21.181734 14.11291,-6.746959 21.95891,-8.392834 39.92838,-8.375872 13.92757,0.01315 16.41302,0.288618 24.5,2.715419 19.52962,5.860597 36.20855,16.925301 48.00942,31.849169 29.10416,36.806319 26.53776,89.028249 -6.00942,122.281799 -12.32242,12.58985 -24.87739,20.22887 -41.20341,25.07003 -12.08935,3.58486 -32.74931,4.28712 -45.29659,1.53969 z m 0.79966,-55.55722 c 1.48519,-0.78503 6.29036,-5.06061 10.67816,-9.50129 l 7.97782,-8.07396 8.02218,7.85986 c 10.01161,9.80903 12.02173,11.14271 16.79435,11.14271 7.46276,0 12.72783,-5.18473 12.72783,-12.53362 0,-4.03018 -1.56809,-6.30378 -10.83953,-15.71638 l -8.61877,-8.75 8.61877,-8.75 c 9.30432,-9.44599 10.83953,-11.68136 10.83953,-15.78313 0,-7.08346 -5.63278,-12.46687 -13.04437,-12.46687 -4.01037,0 -4.75938,0.51443 -14.07508,9.66692 l -9.8393,9.66692 -9.43343,-9.12598 c -5.18838,-5.01929 -10.62209,-9.42432 -12.07491,-9.78896 -6.79176,-1.70462 -13.46712,1.82168 -15.58258,8.23161 -1.94589,5.89611 -0.40479,8.98941 9.63146,19.33225 l 9.34566,9.63115 -8.96086,8.91934 c -9.94292,9.89686 -11.79806,13.41734 -9.97739,18.93402 2.42915,7.36039 10.9197,10.74766 17.81046,7.10541 z"
       style="fill:#fac5b9" />
    <path
       id="path532"
       d="M 131.90824,245.34088 C 99.818537,238.6506 73.624153,216.9362 62.266961,187.61024 56.280912,172.15337 54.526609,151.20851 57.864504,135.04873 64.992332,100.54071 92.329569,72.282148 126.97407,63.610027 c 12.96108,-3.244382 32.18276,-3.049366 45.36493,0.460257 33.21962,8.844395 58.92485,35.044564 67.08726,68.378996 3.0344,12.39216 3.02781,30.36582 -0.0157,42.87699 -7.97075,32.76565 -32.69918,58.40203 -65.63511,68.04503 -11.27846,3.30211 -31.02097,4.23087 -41.86718,1.96958 z m -4.63282,-54.49854 c 2.36903,-0.65844 6.3898,-3.87625 12.44304,-9.95815 l 8.94305,-8.98537 9.57651,9.29264 c 10.42832,10.1192 13.3068,11.48335 19.7493,9.3595 6.61127,-2.17949 10.29118,-10.91586 7.17772,-17.04043 -0.61071,-1.20134 -4.98907,-6.12201 -9.7297,-10.93481 l -8.61932,-8.75055 9.33883,-9.37782 c 8.45761,-8.49293 9.38622,-9.79829 9.84107,-13.83374 0.92017,-8.16374 -4.15727,-13.78734 -12.44833,-13.78734 -4.77262,0 -6.78274,1.33368 -16.79435,11.14271 l -8.02218,7.85986 -7.97782,-8.07396 c -9.14842,-9.25868 -11.80619,-10.92861 -17.39336,-10.92861 -4.86236,0 -10.58861,4.4659 -11.59367,9.04191 -1.29138,5.87966 0.38328,9.07018 9.81875,18.70643 l 9.05564,9.24834 -8.643,8.83243 c -11.06684,11.30941 -12.46564,14.69456 -9.04804,21.89662 1.13106,2.38353 2.99632,4.12849 5.75,5.37916 4.82463,2.19127 4.20648,2.12559 8.57586,0.91118 z"
       style="fill:#f8a29e" />
    <path
       id="path530"
       d="m 134.9885,245.80381 c -36.550737,-5.77822 -65.896052,-32.23734 -75.947153,-68.47754 -2.530484,-9.1239 -3.434775,-28.05479 -1.81867,-38.07296 8.954897,-55.511074 65.742243,-90.681065 119.201933,-73.825084 16.58722,5.229997 27.95719,12.444144 40.41275,25.641548 31.11211,32.965116 33.2288,84.457016 4.94379,120.265416 -12.70988,16.09052 -31.47912,28.09108 -51.63476,33.0139 -7.76411,1.89632 -27.26145,2.70305 -35.15789,1.45472 z m -6.43096,-55.37121 c 1.76983,-0.76652 7.02463,-5.25816 11.67732,-9.98142 l 8.45943,-8.58774 9.54057,9.35622 c 6.57883,6.45172 10.5484,9.57474 12.7871,10.06011 7.49235,1.62443 15.25346,-4.27571 15.25346,-11.59597 0,-5.52704 -1.02082,-7.13929 -10.81841,-17.08631 l -8.59765,-8.72878 9.70803,-9.88115 c 9.16036,-9.32371 9.70803,-10.1175 9.70803,-14.07087 0,-8.00981 -4.66302,-13.09042 -12.01448,-13.09042 -5.66098,0 -8.29154,1.64627 -17.46438,10.92966 l -7.97887,8.07502 -9.10894,-9.07107 c -9.66563,-9.62545 -13.02727,-11.35038 -19.03786,-9.76874 -6.43112,1.69228 -10.59274,8.9287 -8.93449,15.5357 0.37461,1.49255 4.79207,6.90574 9.81658,12.02931 l 9.13548,9.3156 -8.59614,8.72726 c -4.72788,4.79999 -9.09581,9.71018 -9.70652,10.91152 -2.89159,5.68813 -0.014,13.63767 6.01111,16.60583 4.15399,2.0464 6.03094,2.10482 10.16063,0.31624 z"
       style="fill:#f6847b" />
    <path
       id="path528"
       d="m 135.77542,245.79544 c -7.79647,-1.2031 -21.66483,-5.51652 -28,-8.70872 -12.987968,-6.54445 -27.440382,-19.0462 -35.41172,-30.63215 -4.883904,-7.09851 -10.843947,-20.27708 -13.173352,-29.1283 -3.162337,-12.01618 -3.642175,-29.44555 -1.142788,-41.51003 7.576083,-36.569562 34.539352,-64.00427 71.22786,-72.473249 10.11983,-2.336007 28.97496,-2.350314 39,-0.02959 36.36863,8.419071 64.16559,36.333093 71.41992,71.720709 2.03522,9.92805 2.03274,27.67564 -0.005,37.58432 -3.50195,17.02648 -11.30711,31.92872 -23.29999,44.48617 -17.77781,18.61447 -38.67837,28.12727 -64.11493,29.18153 -5.775,0.23935 -13.2,0.0185 -16.5,-0.49069 z m -6.70034,-55.39705 c 1.48519,-0.78533 6.50709,-5.27697 11.15978,-9.98141 l 8.45943,-8.55354 9.56042,9.39292 c 10.4299,10.24718 14.13019,12.00984 20.05762,9.55462 5.16592,-2.13979 7.96309,-6.42578 7.96309,-12.20151 0,-5.05746 -0.0113,-5.07483 -9.68718,-14.92328 l -9.68719,-9.85992 9.68719,-9.85992 c 9.6759,-9.84845 9.68718,-9.86582 9.68718,-14.92328 0,-6.1989 -3.24987,-10.66845 -8.85453,-12.17763 -6.34581,-1.70875 -9.74521,0.013 -19.62565,9.94021 l -8.98017,9.02268 -9.01983,-8.94956 c -9.60819,-9.53334 -13.03348,-11.53189 -17.94354,-10.46946 -7.24615,1.5679 -11.26191,7.26857 -10.27955,14.59261 0.48079,3.5845 1.7993,5.38738 9.85884,13.48057 l 9.30383,9.34268 -8.61932,8.75055 c -9.58914,9.73513 -10.84175,11.63489 -10.83634,16.43481 0.0101,8.98565 10.11282,15.4505 17.79592,11.38786 z"
       style="fill:#f45a56" />
    <path
       id="path526"
       d="M 137.5251,245.76003 C 116.79096,243.06432 98.123833,233.93455 83.702933,219.43657 66.601537,202.24376 57.752504,182.12101 56.609634,157.82627 54.441722,111.74151 87.135754,70.949279 132.70908,62.877251 c 8.74183,-1.548369 26.53598,-1.280068 35.3585,0.533137 36.92214,7.588244 66.20854,38.326522 72.26059,75.842922 1.54068,9.55061 0.7108,28.77626 -1.62183,37.57296 -9.86441,37.20002 -40.99365,64.38027 -78.93092,68.91789 -10.00996,1.19728 -13.14634,1.19951 -22.25032,0.0159 z m -8.64555,-54.97335 c 1.50387,-0.57177 6.70892,-4.92894 11.56676,-9.68259 l 8.83243,-8.643 9.2912,9.11155 c 5.11015,5.01135 10.51236,9.41804 12.00491,9.79265 6.39187,1.60425 13.13136,-2.22279 15.64925,-8.88648 2.00325,-5.30165 -0.10354,-9.36362 -9.92316,-19.13222 l -9.02659,-8.97968 8.45963,-8.52032 c 4.65279,-4.68618 9.16594,-10.22427 10.02923,-12.30689 4.00609,-9.6644 -5.77384,-20.08434 -15.75803,-16.78926 -1.90655,0.62922 -7.01464,4.83643 -12.21352,10.05951 l -8.93634,8.97794 -9.55981,-9.39232 c -7.29604,-7.16822 -10.40482,-9.55085 -13.12829,-10.06178 -7.92181,-1.48614 -14.88073,4.76909 -14.88806,13.38256 -0.004,4.20844 0.39795,4.79892 9.70483,14.27177 l 9.70857,9.88169 -9.3177,9.3566 c -8.43658,8.47181 -9.36519,9.77797 -9.81994,13.81252 -1.14227,10.13413 7.91829,17.32403 17.32463,13.74775 z"
       style="fill:#f73d41" />
    <path
       id="path524"
       d="M 137.5251,245.76003 C 105.76328,241.63057 77.911319,221.2359 64.842691,192.53816 50.177226,160.3339 54.646145,124.28368 76.816192,95.949402 c 3.196994,-4.085897 6.063847,-6.867492 6.683366,-6.484609 0.596686,0.368772 0.813406,0.231237 0.481602,-0.305635 -0.672161,-1.087579 0.8927,-2.566056 10.152875,-9.592406 8.214935,-6.233254 17.865225,-11.054397 28.853065,-14.41457 7.96088,-2.434501 10.34184,-2.694054 25.28832,-2.756725 13.17047,-0.05523 17.91253,0.310555 23.5,1.812676 8.69109,2.336489 20.64515,7.574259 19.92947,8.732258 -0.29334,0.474634 0.0867,0.625047 0.84448,0.334251 2.17608,-0.835042 13.51855,7.241292 21.76914,15.500585 8.28497,8.293707 15.47172,18.409043 14.35874,20.209893 -0.40548,0.65607 -0.27348,0.87986 0.30727,0.52093 1.31986,-0.81571 7.66588,12.90065 6.89639,14.90592 -0.32042,0.835 -0.20455,1.28454 0.25749,0.99898 1.02949,-0.63626 2.63883,4.64336 4.21185,13.81745 1.49565,8.72282 0.66693,29.0407 -1.50852,36.98451 -2.05066,7.48819 -5.96542,17.28634 -9.26607,23.19185 -1.94655,3.48276 -2.8044,4.27523 -3.53016,3.26114 -0.70674,-0.9875 -0.80161,-0.85577 -0.36096,0.50115 0.72187,2.2229 -3.08413,7.97811 -4.6401,7.01647 -0.67064,-0.41448 -0.78558,-0.19306 -0.30415,0.58591 0.80776,1.30698 -6.58097,9.50224 -13.73855,15.23824 -2.84084,2.27661 -4.09743,2.75549 -5.08334,1.93726 -0.97642,-0.81035 -1.30965,-0.72048 -1.30965,0.35323 0,0.79207 0.4875,1.19588 1.08334,0.89734 0.59583,-0.29853 -0.0417,0.38319 -1.41667,1.51494 -4.22827,3.48025 -14.02163,8.32151 -15.60468,7.71404 -0.82456,-0.31642 -1.23873,-0.15385 -0.92038,0.36125 0.93538,1.51347 -14.29089,5.79868 -24.74662,6.96456 -10.66395,1.1891 -12.40156,1.18989 -21.47864,0.01 z m 20.47949,-2.53793 c -0.3323,-0.33229 -1.1948,-0.36781 -1.91667,-0.0789 -0.79773,0.31922 -0.56078,0.55618 0.60417,0.60416 1.05416,0.0434 1.64479,-0.19293 1.3125,-0.52522 z m 47.27083,-17.78884 c 0,-0.21616 -0.69837,-0.661 -1.55194,-0.98855 -0.88992,-0.34149 -1.29132,-0.17385 -0.94098,0.39301 0.58726,0.95021 2.49292,1.40545 2.49292,0.59554 z M 87.801885,219.0194 c -0.307887,-0.30789 -1.114794,-6.4e-4 -1.793128,0.68278 -0.980267,0.98762 -0.865403,1.10248 0.559795,0.5598 0.986221,-0.37553 1.541221,-0.93469 1.233333,-1.24258 z m -5.164835,-4.69313 c -0.316582,-0.825 -1.032559,-1.5 -1.59106,-1.5 -0.585304,0 -0.488115,0.63541 0.229434,1.5 0.684689,0.825 1.400666,1.5 1.59106,1.5 0.190394,0 0.08715,-0.675 -0.229434,-1.5 z m -5.234071,-13.25 c 1.243871,-1.58606 1.208501,-1.62143 -0.377555,-0.37756 -0.9625,0.75485 -1.75,1.54235 -1.75,1.75 0,0.82304 0.821186,0.29331 2.127555,-1.37244 z M 133.01904,188.2033 c 2.06601,-1.57854 4.20638,-2.72164 4.75638,-2.54022 0.55,0.18142 0.65335,-0.0168 0.22966,-0.44048 -1.02845,-1.02845 6.31833,-8.4847 7.58735,-7.7004 0.54561,0.3372 0.70809,0.1537 0.36108,-0.40777 -0.34701,-0.56148 0.27628,-1.84188 1.38509,-2.84533 1.9808,-1.79261 2.17848,-1.66267 11.31964,7.44048 7.95169,7.91862 9.88744,9.34325 13.32116,9.80381 5.95255,0.79841 10.69392,-1.8119 13.3837,-7.36823 3.35812,-6.93696 1.86017,-10.39425 -9.18576,-21.20097 -7.32506,-7.16642 -8.7353,-9.01131 -7.60523,-9.94919 0.76303,-0.63326 1.75557,-0.81778 2.20564,-0.41005 0.45008,0.40772 0.53504,0.24423 0.18882,-0.36332 -0.69511,-1.21976 3.55378,-5.7176 4.63304,-4.90451 0.37169,0.28003 0.4617,0.22004 0.2,-0.13332 -0.26169,-0.35336 1.9231,-3.23358 4.8551,-6.40049 5.71198,-6.16962 7.08602,-9.84779 5.60628,-15.00737 -0.51019,-1.77893 -0.64613,-3.68988 -0.30209,-4.24655 0.34405,-0.55668 0.16615,-0.72822 -0.39532,-0.38121 -0.56148,0.34701 -1.81042,-0.24152 -2.77543,-1.30785 -0.96501,-1.06632 -3.27671,-2.44112 -5.13711,-3.05511 -6.02099,-1.98711 -9.13033,-0.43946 -19.45042,9.6813 l -9.5748,9.38986 -8.65508,-8.94128 c -4.7603,-4.91771 -9.57068,-9.23188 -10.68973,-9.58705 -1.11905,-0.35518 -1.81367,-1.0033 -1.5436,-1.44028 0.51716,-0.83678 -6.60866,0.27249 -9.87603,1.53739 -1.48095,0.57332 -1.72751,0.41969 -1.08968,-0.67895 0.4534,-0.78097 0.48972,-1.11994 0.0807,-0.75327 -0.40901,0.36666 -0.7334,1.04166 -0.72087,1.5 0.0125,0.45833 -0.92516,1.84237 -2.08376,3.07564 -1.44086,1.53373 -2.25121,3.98686 -2.56435,7.76295 l -0.45782,5.52063 9.83165,10.00697 9.83165,10.00696 -7.88341,7.92992 c -4.33588,4.36146 -8.36641,7.65535 -8.95675,7.31977 -0.59033,-0.33559 -0.75172,-0.2539 -0.35864,0.18153 0.39309,0.43542 0.0556,1.7327 -0.75,2.88283 -2.41788,3.45201 -1.86388,10.43398 1.14044,14.37285 1.43283,1.87853 3.57033,3.82904 4.75,4.33446 3.78483,1.62158 10.358,0.39537 14.38849,-2.68415 z m 54.25638,2.12297 c 0,-0.15731 -0.6,-0.51626 -1.33333,-0.79767 -0.73334,-0.28141 -1.33334,0.0775 -1.33334,0.79767 0,0.72013 0.6,1.07908 1.33334,0.79767 0.73333,-0.28141 1.33333,-0.64036 1.33333,-0.79767 z m -75.87591,-4.76667 c -0.98762,-0.98026 -1.10248,-0.8654 -0.5598,0.5598 0.37553,0.98622 0.93469,1.54122 1.24258,1.23333 0.30789,-0.30789 6.4e-4,-1.11479 -0.68278,-1.79313 z m 33.87591,-3.12634 c 0,-0.21616 -0.69837,-0.661 -1.55194,-0.98855 -0.88992,-0.34149 -1.29132,-0.17385 -0.94098,0.39301 0.58726,0.95021 2.49292,1.40545 2.49292,0.59554 z m 8.5,-0.60699 c 0.33992,-0.55 0.14148,-1 -0.44098,-1 -0.58246,0 -1.05902,0.45 -1.05902,1 0,0.55 0.19844,1 0.44098,1 0.24254,0 0.7191,-0.45 1.05902,-1 z m 35.42611,-11.41097 c 0.89667,-1.08042 0.88916,-1.58517 -0.0321,-2.15451 -0.8178,-0.50543 -0.94094,-0.3194 -0.38451,0.58091 0.58916,0.95328 0.36649,1.15098 -0.79457,0.70544 -1.1327,-0.43466 -1.44751,-0.18746 -1.05705,0.83006 0.68642,1.78878 0.81349,1.79091 2.26819,0.0381 z m -76.39965,-29.3959 c -0.30789,-0.30789 -1.11479,-6.4e-4 -1.79313,0.68278 -0.98026,0.98762 -0.8654,1.10248 0.5598,0.5598 0.98622,-0.37553 1.54122,-0.93469 1.23333,-1.24258 z m 72.8411,1.02116 c 0.26708,-0.43215 -0.34832,-0.78572 -1.36756,-0.78572 -1.01924,0 -1.63464,0.35357 -1.36756,0.78572 0.26707,0.43214 0.88248,0.78571 1.36756,0.78571 0.48508,0 1.10049,-0.35357 1.36756,-0.78571 z m 3.04673,-21.2 c -0.64762,-0.64762 -0.98572,-0.30953 -0.98572,0.98571 0,1.29524 0.3381,1.63333 0.98572,0.98571 0.64761,-0.64761 0.64761,-1.32381 0,-1.97142 z m 45.26882,-0.20179 c -0.31922,-0.79773 -0.55618,-0.56078 -0.60416,0.60417 -0.0434,1.05416 0.19292,1.64479 0.52522,1.3125 0.33229,-0.3323 0.36781,-1.1948 0.0789,-1.91667 z m -119.68311,-2.35734 c 0,-0.18197 -0.86882,-0.26542 -1.93072,-0.18543 -1.0619,0.08 -1.72249,0.48237 -1.46798,0.89418 0.42244,0.68351 3.3987,0.0629 3.3987,-0.70875 z m 47.12207,-1.13016 c -1.17884,-2.02721 -1.46351,-1.37835 -0.49853,1.13634 0.34294,0.8937 0.83419,1.41426 1.09166,1.15679 0.25747,-0.25747 -0.009,-1.28938 -0.59313,-2.29313 z m 7.37793,-2.325 c -0.33992,-0.55 -1.15398,-0.99311 -1.80902,-0.98469 -0.71561,0.009 -0.59227,0.40223 0.30902,0.98469 1.92112,1.24153 2.2673,1.24153 1.5,0 z m 35.84502,-29.749999 c 0.25469,-0.4125 -0.68774,-0.819191 -2.09427,-0.903757 -1.84381,-0.110857 -2.1658,0.09413 -1.15404,0.734687 1.73174,1.09639 2.64638,1.143996 3.24831,0.16907 z m -95.84502,-10.25 c 0.33992,-0.55 0.14148,-1 -0.44098,-1 -0.58246,0 -1.05902,0.45 -1.05902,1 0,0.55 0.19844,1 0.44098,1 0.24254,0 0.7191,-0.45 1.05902,-1 z m 61,-9 c 0.33992,-0.55 0.14148,-1 -0.44098,-1 -0.58246,0 -1.05902,0.45 -1.05902,1 0,0.55 0.19844,1 0.44098,1 0.24254,0 0.7191,-0.45 1.05902,-1 z"
       style="fill:#f24138" />
    <path
       id="path522"
       d="m 142.77542,246.21331 c -1.65,-0.21678 -5.36858,-0.65068 -8.2635,-0.96423 -2.89493,-0.31356 -5.03181,-0.94499 -4.74862,-1.40319 0.28318,-0.45821 -0.30602,-0.61843 -1.30935,-0.35606 -1.00332,0.26238 -4.71644,-0.49514 -8.25138,-1.68337 -20.963057,-7.04653 -39.161999,-21.43576 -50.299369,-39.76985 -4.683736,-7.71026 -8.92391,-17.99625 -8.198178,-19.88747 0.301121,-0.78471 0.139567,-1.17463 -0.359009,-0.8665 -1.304282,0.80609 -4.124798,-12.48992 -4.783606,-22.55007 -0.312545,-4.77264 -0.02515,-12.33144 0.646356,-17 2.34244,-16.28548 11.959057,-39.5163 15.842504,-38.27066 1.382386,0.4434 1.44283,0.35323 0.304927,-0.45491 -2.924715,-2.07714 11.888863,-17.643945 25.433219,-26.726427 8.750866,-5.8681 27.983496,-13.686303 26.076146,-10.600145 -0.39361,0.636865 -0.12671,1.152645 0.60084,1.161156 1.02748,0.01202 1.01262,0.203049 -0.0691,0.888196 -0.81498,0.516203 -1.05367,1.397835 -0.58413,2.157565 0.45554,0.737086 -0.22407,0.571617 -1.59439,-0.388196 -2.30458,-1.614188 -4.9638,-2.359982 -3.6187,-1.014887 0.36189,0.361895 0.0994,1.374395 -0.58334,2.25 -1.0983,1.408586 -1.03969,1.433883 0.50868,0.219564 1.37227,-1.076209 2.06247,-1.11312 3.19764,-0.171008 1.0386,0.86196 1.95691,0.90515 3.25,0.152853 1.07959,-0.628087 1.27743,-1.060777 0.49334,-1.078991 -2.40957,-0.05598 -0.10682,-2.030409 2.36804,-2.030409 1.34254,0 2.44098,-0.50246 2.44098,-1.116577 0,-0.651791 -1.04065,-0.917644 -2.5,-0.638672 -1.59565,0.305027 -2.5,0.02259 -2.5,-0.780768 0,-2.942543 28.47665,-4.722787 39,-2.438121 10.75145,2.334187 13.11497,3.232152 12.52868,4.759983 -0.481,1.253471 -0.31965,1.285562 0.9917,0.19724 1.32343,-1.098349 3.14809,-0.504319 11.77289,3.832748 11.89962,5.983838 20.83336,12.972642 28.97593,22.667674 6.88387,8.196342 12.15442,17.022042 11.14277,18.658922 -0.42026,0.67999 -0.28837,0.89922 0.31619,0.52558 1.26026,-0.77889 4.37965,6.23052 7.28843,16.37747 2.71557,9.47296 3.66594,26.86019 2.06618,37.80105 -3.64827,24.95065 -18.75114,48.97014 -39.40614,62.67124 -4.41413,2.92803 -6.01737,3.54894 -6.625,2.56576 -0.51122,-0.82717 -1.03031,-0.92705 -1.43286,-0.2757 -0.34718,0.56174 -0.0659,1.23483 0.625,1.49574 0.69093,0.26092 -1.83343,1.90248 -5.60968,3.64792 -3.77625,1.74544 -7.51212,2.92556 -8.30194,2.62248 -0.78981,-0.30309 -1.19271,-0.15738 -0.89534,0.32379 1.48669,2.40552 -26.67122,6.70658 -35.93681,5.48928 z m 2.41465,-2.375 c -0.9349,-0.54674 -2.78122,-0.56953 -4.5,-0.0555 -2.69082,0.80466 -2.56907,0.87586 1.58535,0.92714 3.21878,0.0397 4.04862,-0.20843 2.91465,-0.8716 z m 11.16354,0.32232 c 2.88676,-0.57735 3.06913,-0.77884 1.375,-1.51911 -1.41193,-0.61697 -1.05257,-0.71655 1.29681,-0.35936 2.46899,0.37537 3.25,0.12547 3.25,-1.03991 0,-0.84371 -0.419,-1.27505 -0.93112,-0.95855 -0.51212,0.31651 -3.20248,0.62664 -5.97857,0.68918 -4.84316,0.10912 -6.30517,1.72741 -1.78129,1.9717 1.70327,0.092 1.52319,0.28824 -0.80902,0.88169 -3.77462,0.96048 -0.89691,1.22938 3.57819,0.33436 z m 12.15218,-2.33436 c 1.18072,-1.1 1.7244,-1.98569 1.20819,-1.9682 -1.18774,0.0402 -4.43856,2.47802 -4.43856,3.32844 0,1.12519 1.02655,0.69293 3.23037,-1.36024 z m -27.44547,-0.5037 c 0.3933,-0.42198 -1.68676,-0.46055 -4.62238,-0.0857 -4.03321,0.51498 -5.15616,0.38815 -4.59549,-0.51904 0.47356,-0.76623 0.31842,-0.93878 -0.42883,-0.47695 -0.64395,0.39798 -0.9107,1.14449 -0.59277,1.65891 0.65912,1.06649 9.15378,0.58764 10.23947,-0.5772 z m 35.17513,-0.52455 c 1.00026,-0.53871 0.64714,-0.7368 -1.12136,-0.62904 -1.41976,0.0865 -3.15475,0.7709 -3.85555,1.52086 -1.0609,1.13535 -0.87321,1.24063 1.12136,0.62904 1.31754,-0.40399 3.05253,-1.08838 3.85555,-1.52086 z m -48.33006,-0.26839 c 0.24935,-0.24935 -0.69859,-0.45336 -2.10654,-0.45336 -1.40795,0 -2.76416,0.33049 -3.01381,0.73443 -0.4757,0.7697 4.33357,0.50571 5.12035,-0.28107 z m 19.63906,-0.3593 c -0.67703,-0.27392 -2.02703,-0.29059 -3,-0.0371 -0.97297,0.25354 -0.41903,0.47766 1.23097,0.49804 1.65,0.0204 2.44606,-0.18706 1.76903,-0.46099 z m -30.86099,-2.84406 c -0.90093,-1.375 -2.09141,-2.5 -2.64549,-2.5 -0.55409,0 -0.38984,-0.77973 0.36501,-1.73274 1.28583,-1.62339 1.19889,-1.62193 -1.37756,0.0231 -2.44977,1.5641 -3.10472,1.48919 -2.93658,-0.33583 0.0761,-0.82579 -4.56255,-0.56372 -5.23044,0.29551 -0.32064,0.4125 -0.30244,0.54446 0.0404,0.29325 0.34288,-0.25122 2.03038,0.58239 3.75,1.85247 4.89114,3.61248 6.38265,4.24001 4.22159,1.77617 -1.0477,-1.19458 -1.46635,-2.17193 -0.93029,-2.17193 0.53606,0 1.95282,1.125 3.14837,2.5 1.19555,1.375 2.41207,2.5 2.70339,2.5 0.29132,0 -0.20746,-1.125 -1.1084,-2.5 z m 67.19613,-1.22917 c -1.01652,-1.01651 -1.85525,0.51389 -1.02122,1.86338 0.63003,1.01942 0.86558,1.02021 1.2043,0.004 0.2316,-0.69479 0.14921,-1.53513 -0.18308,-1.86742 z m 5.51288,-1.55361 c -1.0863,-1.08654 -3.78372,0.0919 -3.78372,1.65307 0,0.98521 0.53162,1.0334 2.28317,0.20697 1.25574,-0.59249 1.93098,-1.42951 1.50055,-1.86004 z m -1.62413,-1.70577 c 0.35034,-0.56686 -0.0511,-0.7345 -0.94098,-0.39301 -1.73242,0.66479 -2.04939,1.38156 -0.61096,1.38156 0.51754,0 1.21592,-0.44485 1.55194,-0.98855 z m -85.13129,-1.51145 c -0.31659,-0.825 -1.03256,-1.5 -1.59106,-1.5 -0.5853,0 -0.48812,0.63541 0.22943,1.5 0.68469,0.825 1.40067,1.5 1.59106,1.5 0.19039,0 0.0872,-0.675 -0.22943,-1.5 z m -0.97033,-4.07732 c 0.32526,-0.84762 -0.0716,-1.42268 -0.9817,-1.42268 -0.840195,0 -1.2527,-0.44485 -0.916675,-0.98855 0.810135,-1.31083 -2.774307,0.0152 -3.670873,1.35805 -0.842276,1.26149 2.15491,3.57657 3.808741,2.94194 0.668017,-0.25634 1.460237,-1.10628 1.760507,-1.88876 z m -3.391296,0.57732 c 0,-0.55 0.476558,-1 1.059017,-1 0.582459,0 0.780899,0.45 0.440983,1 -0.339919,0.55 -0.816476,1 -1.059017,1 -0.242541,0 -0.440983,-0.45 -0.440983,-1 z M 207.19343,223.783 c 0.87009,-0.84879 2.25346,-2.3762 3.07415,-3.39424 1.3898,-1.72401 1.3212,-1.80324 -1,-1.15496 -2.28633,0.63854 -2.3457,0.578 -0.71886,-0.73303 1.69528,-1.36619 1.69368,-1.44987 -0.0364,-1.9023 -1.47542,-0.38583 -1.78722,0.0994 -1.68807,2.62728 0.15197,3.87448 -1.27063,5.82359 -3.69001,5.05571 -1.06078,-0.33668 -1.85882,-0.10637 -1.85882,0.53644 0,0.61952 0.44485,0.85147 0.98855,0.51545 0.59107,-0.3653 0.71832,0.0932 0.31648,1.14042 -0.43734,1.13968 -0.81657,1.31788 -1.0858,0.5102 -0.32337,-0.97013 -0.73039,-0.97836 -1.86381,-0.0377 -1.15623,0.95958 -1.19031,1.36402 -0.16821,1.99571 1.19077,0.73594 2.76454,-0.31427 7.7308,-5.15897 z m -6.91801,1.04327 c 0,-0.55 -0.45,-1 -1,-1 -0.55,0 -1,0.45 -1,1 0,0.55 0.45,1 1,1 0.55,0 1,-0.45 1,-1 z m -105.416663,-0.75 c -0.229166,-0.22917 -0.670501,-0.26667 -0.980742,-0.0833 -0.310242,0.1833 -1.356956,-0.7917 -2.32603,-2.1667 -1.748136,-2.48039 -1.896273,-2.8393 -2.166874,-5.25 -0.108644,-0.96788 -0.326813,-0.95596 -0.966641,0.0528 -0.45448,0.71653 -1.302589,1.16653 -1.884687,1 -0.582097,-0.16655 -1.103359,0.0347 -1.158359,0.4472 -0.287377,2.15533 0.04107,2.6331 1.440894,2.09593 0.847491,-0.32521 1.409991,-0.13109 1.25,0.43139 -0.159992,0.56247 0.06268,1.05161 0.49482,1.08697 0.432143,0.0353 1.401786,0.68035 2.154762,1.43333 0.752976,0.75298 2.086905,1.36905 2.964286,1.36905 0.877381,0 1.407738,-0.1875 1.178571,-0.41667 z m -0.583333,-3.25 c 0,-0.55 -0.198442,-1 -0.440983,-1 -0.242541,0 -0.719098,0.45 -1.059017,1 -0.339919,0.55 -0.141476,1 0.440983,1 0.582459,0 1.059017,-0.45 1.059017,-1 z m 0,-2.48454 c 0,-0.14882 -0.649595,-0.80969 -1.443545,-1.46861 -1.178355,-0.97794 -1.416343,-0.83691 -1.295472,0.76769 0.08771,1.16443 0.676146,1.76308 1.443545,1.4686 0.71251,-0.27341 1.295472,-0.61887 1.295472,-0.76768 z m 120.127556,-1.26546 c 1.24387,-1.58606 1.2085,-1.62143 -0.37756,-0.37756 -0.9625,0.75485 -1.75,1.54235 -1.75,1.75 0,0.82304 0.82119,0.29331 2.12756,-1.37244 z M 85.777759,215.58495 c 0.450073,0.40772 0.475651,0.14814 0.05684,-0.57685 -0.418812,-0.725 -1.41433,-1.06765 -2.212263,-0.76146 -0.797933,0.3062 -1.213027,0.17202 -0.922431,-0.29818 0.290596,-0.47019 -0.248532,-1.52159 -1.198062,-2.33644 -2.846847,-2.44305 -3.893086,-2.77676 -3.893086,-1.24176 0,0.8008 0.675,1.45601 1.5,1.45601 0.825,0 1.2375,0.2625 0.916667,0.58333 -1.016051,1.01605 2.675031,4.15259 3.842009,3.26479 0.600605,-0.45692 1.460252,-0.49717 1.910326,-0.0894 z m 131.247661,-2.00868 c -0.1375,-0.6875 0.21699,-1.16934 0.78775,-1.07075 0.57076,0.0986 1.13274,-0.96859 1.24885,-2.37149 0.1666,-2.01301 -0.0677,-2.31933 -1.11154,-1.45305 -0.84912,0.70471 -1.66788,0.75247 -2.28695,0.1334 -0.61906,-0.61906 -1.00367,-0.16302 -1.07428,1.2738 -0.0605,1.23095 0.10758,1.67279 0.3735,0.98186 0.26592,-0.69093 0.92437,-0.98375 1.46322,-0.65072 0.57603,0.356 0.27095,1.3887 -0.74039,2.50623 -1.57686,1.7424 -1.58228,1.90072 -0.0651,1.90072 0.91025,0 1.54249,-0.5625 1.40499,-1.25 z M 85.533414,212.16665 c -0.827863,-0.33442 -0.944627,-1.05836 -0.35017,-2.17105 0.746766,-1.39778 0.342434,-1.68858 -2.485621,-1.78764 -1.871542,-0.0656 -3.119398,0.29924 -2.79868,0.81817 0.31833,0.51507 1.208264,0.69493 1.977632,0.3997 0.906531,-0.34787 1.398849,0.15605 1.398849,1.43182 0,1.23828 0.649231,1.93933 1.75,1.88967 1.032089,-0.0466 1.240484,-0.28477 0.50799,-0.58067 z m 136.729966,-3.31787 c 0.83014,-1.55114 0.76586,-1.86527 -0.29815,-1.45697 -0.74606,0.28629 -1.35648,1.17616 -1.35648,1.97749 0,1.95904 0.39393,1.83511 1.65463,-0.52052 z M 76.861202,205.32627 c -0.249335,-1.375 -0.108136,-2.5 0.313776,-2.5 0.421912,0 0.765456,-0.5625 0.76343,-1.25 -0.0021,-0.72362 -1.470528,-1.32985 -3.486999,-1.43962 -1.915824,-0.10429 -3.857276,-0.77929 -4.314338,-1.5 -0.661043,-1.04235 -0.834154,-1.04828 -0.846334,-0.029 -0.0084,0.70477 0.631273,1.52951 1.421545,1.83276 0.825934,0.31694 1.193914,1.26026 0.865467,2.21862 -0.43749,1.27654 -0.219199,1.21491 0.931507,-0.26298 1.474758,-1.89408 1.524745,-1.8894 2.669717,0.25 0.657952,1.22939 0.751702,2.18022 0.214968,2.18022 -0.523518,0 -1.178824,-0.5625 -1.456236,-1.25 -0.395059,-0.97906 -0.521498,-0.97226 -0.583334,0.0314 -0.04342,0.70477 0.593468,1.53942 1.415309,1.85479 0.821841,0.31537 1.245284,0.97625 0.940983,1.46861 -0.3043,0.49237 -0.06791,0.89522 0.525301,0.89522 0.604702,0 0.879401,-1.09838 0.625238,-2.5 z m 149.414218,-2.5 c 0,-0.55 -0.19844,-1 -0.44098,-1 -0.24254,0 -0.7191,0.45 -1.05902,1 -0.33992,0.55 -0.14148,1 0.44098,1 0.58246,0 1.05902,-0.45 1.05902,-1 z m 2,-2.39301 c 0,-0.21616 -0.69837,-0.661 -1.55194,-0.98855 -0.88992,-0.34149 -1.29132,-0.17385 -0.94098,0.39301 0.58726,0.95021 2.49292,1.40545 2.49292,0.59554 z m -52.25,-1.29632 c -0.9625,-0.25152 -2.5375,-0.25152 -3.5,0 -0.9625,0.25153 -0.175,0.45733 1.75,0.45733 1.925,0 2.7125,-0.2058 1.75,-0.45733 z m -52.25,-1.31067 c -0.33992,-0.55 -1.71648,-1 -3.05902,-1 -1.34254,0 -2.44098,0.45 -2.44098,1 0,0.55 1.37656,1 3.05902,1 1.7847,0 2.80156,-0.41658 2.44098,-1 z m -55.613865,-4.98881 c -1.233011,-2.19385 -1.936804,-4.29385 -1.563985,-4.66667 0.37282,-0.37282 0.677854,0.0721 0.677854,0.98881 0,0.91667 0.419676,1.66667 0.932612,1.66667 1.126014,0 2.492911,-3.90781 1.658694,-4.74203 -0.325218,-0.32522 -0.60499,0.2712 -0.621715,1.32536 -0.02835,1.78666 -0.09985,1.79743 -1.054122,0.15875 -0.563042,-0.96686 -0.798367,-2.12254 -0.522944,-2.56818 0.275423,-0.44565 -0.801213,-0.81026 -2.392525,-0.81026 -1.591312,0 -2.677892,0.34852 -2.414622,0.7745 0.26327,0.42598 1.147652,0.5178 1.965294,0.20404 1.221245,-0.46863 1.311497,-0.10986 0.505584,2.00986 -0.715609,1.88219 -0.628106,2.93325 0.323417,3.88478 0.71745,0.71745 1.841359,2.30767 2.497575,3.53382 0.656216,1.22615 1.43108,2.22936 1.721921,2.22936 0.29084,0 -0.480027,-1.79497 -1.713038,-3.98881 z m 58.756725,2.48881 c -0.825,-0.825 -2.31965,-1.49337 -3.32143,-1.48526 -1.44309,0.0117 -1.30214,0.30289 0.67857,1.40195 3.3712,1.87063 4.46464,1.9051 2.64286,0.0833 z m 47.35714,-0.5 c 0,-0.55 -0.675,-1 -1.5,-1 -0.825,0 -1.5,0.45 -1.5,1 0,0.55 0.675,1 1.5,1 0.825,0 1.5,-0.45 1.5,-1 z m 5,0 c 0,-0.55 -1.0125,-0.99311 -2.25,-0.98469 -1.81944,0.0124 -1.96296,0.20082 -0.75,0.98469 1.93876,1.25292 3,1.25292 3,0 z m 52.85943,-5 c 0,-0.94548 -0.31771,-0.76064 -0.85943,0.5 -0.47269,1.1 -0.85943,2.675 -0.85943,3.5 0,0.94548 0.31771,0.76064 0.85943,-0.5 0.47269,-1.1 0.85943,-2.675 0.85943,-3.5 z m -102.49455,0.82469 c 1.17432,-0.6175 6.08385,-4.97309 10.91008,-9.6791 l 8.77496,-8.55637 9.31827,9.27952 c 8.20013,8.16603 9.83413,9.34871 13.61736,9.85615 5.88452,0.78928 10.35155,-1.72408 13.0794,-7.35905 2.52125,-5.20821 2.03606,-8.54586 -2.06531,-14.20764 -1.57679,-2.17669 -2.55926,-4.2999 -2.18326,-4.71824 0.37599,-0.41833 0.10814,-0.42889 -0.59522,-0.0235 -0.81768,0.47134 -3.41157,-1.35116 -7.1931,-5.05397 l -5.91426,-5.79113 9.29255,-9.57642 c 7.05981,-7.27549 9.45418,-10.43801 9.96526,-13.16231 1.19567,-6.37344 -2.69725,-12.79496 -9.02212,-14.88235 -6.0133,-1.98457 -9.10749,-0.42764 -19.59949,9.86205 -5.3625,5.25909 -9.74311,9.14026 -9.73469,8.6248 0.0238,-1.45344 1.29422,-3.0001 3.48469,-4.24223 1.1,-0.62377 1.41094,-1.14782 0.69098,-1.16454 -0.71996,-0.0167 -1.02636,-0.48775 -0.6809,-1.04672 0.34546,-0.55897 1.01593,-0.77663 1.48992,-0.48369 0.47399,0.29294 1.18743,0.006 1.58541,-0.6382 0.42615,-0.68951 0.29208,-0.90412 -0.32612,-0.52205 -1.08279,0.6692 -2.71613,-2.21625 -1.78283,-3.14954 0.28795,-0.28795 0.52354,0.0915 0.52354,0.84312 0,1.06297 0.26667,1.1 1.2,0.16667 1.57983,-1.57983 3.12481,-1.54418 2.16706,0.05 -0.5165,0.85971 -0.22613,0.82433 0.92997,-0.11331 0.92452,-0.74982 1.43435,-1.76232 1.13294,-2.25 -0.3014,-0.48768 -0.11358,-0.88669 0.41739,-0.88669 0.53097,0 0.69544,-1.0125 0.36549,-2.25 l -0.59991,-2.25 -0.58405,2.42586 c -0.32123,1.33422 -1.24664,2.60598 -2.05647,2.82613 -1.26075,0.34273 -1.25678,0.24777 0.0276,-0.66055 1.28089,-0.90585 1.22874,-1.06305 -0.35699,-1.07613 -1.27702,-0.0105 -1.66938,0.47359 -1.25629,1.55008 0.47024,1.22544 0.13779,1.41847 -1.53083,0.88887 -1.84126,-0.58439 -2.06853,-0.34697 -1.66893,1.74341 0.34631,1.81163 -0.12178,2.6957 -1.86218,3.51704 -1.4022,0.66173 -2.32478,0.71419 -2.32478,0.13219 0,-0.53071 -0.43035,-0.69897 -0.95633,-0.37389 -0.52598,0.32507 -0.69538,1.27106 -0.37644,2.10219 0.51501,1.34208 0.77092,1.33826 2.28748,-0.0342 2.48634,-2.25011 3.24854,-0.74424 0.84159,1.66271 l -2.03704,2.03704 -6.52919,-6.52919 c -4.02334,-4.02334 -6.5791,-7.42771 -6.65923,-8.87037 -0.0715,-1.28765 -0.51188,-2.95399 -0.97856,-3.70298 -0.53392,-0.85691 -0.33757,-1.68543 0.5296,-2.23469 1.07113,-0.67844 0.96231,-0.8763 -0.48851,-0.8882 -1.37702,-0.0113 -1.72945,0.50928 -1.34362,1.98469 0.36422,1.39277 0.0201,2.01924 -1.13337,2.06339 -1.0906,0.0417 -0.83825,0.39064 0.7388,1.02148 1.31735,0.52695 2.16057,1.19272 1.87381,1.47947 -0.28676,0.28676 -2.10203,-0.23238 -4.03393,-1.15364 -4.53706,-2.16357 -9.77547,-1.2399 -13.90776,2.4523 -2.46875,2.20583 -3.18099,3.76254 -3.569,7.80058 -0.30535,3.1779 0.006,5.9314 0.84093,7.44061 0.72912,1.3177 1.21892,2.76676 1.08845,3.22014 -0.13048,0.45338 0.14442,0.58846 0.61088,0.30017 0.46646,-0.28829 4.40514,3.05385 8.75262,7.42698 l 7.90451,7.95114 -8.92008,8.9616 c -6.13713,6.1657 -9.27608,8.66614 -10.06117,8.01456 -0.76497,-0.63486 -1.14111,-0.47232 -1.14111,0.49311 0,0.79207 0.2625,1.2779 0.58334,1.07961 0.32083,-0.19828 0.58333,2.70354 0.58333,6.4485 0,3.74496 -0.24107,6.66003 -0.53571,6.47793 -0.29465,-0.1821 -0.53572,0.53587 -0.53572,1.59549 0,1.05962 0.35357,1.92658 0.78572,1.92658 0.43214,0 0.78571,-0.75344 0.78571,-1.67431 0,-1.38664 0.42886,-1.27142 2.49606,0.67061 2.5513,2.39682 2.68453,4.22839 0.15485,2.12895 -1.34397,-1.1154 -4.65324,-0.5945 -4.64872,0.73174 0.004,1.15846 17.15256,1.12985 19.36269,-0.0323 z m 8.89414,-0.82469 c 0.47246,0 0.58408,0.44485 0.24806,0.98855 -0.34345,0.55571 0.0347,0.74078 0.86366,0.42268 0.81104,-0.31123 1.72926,-1.22945 2.04049,-2.04049 0.3181,-0.82895 0.13303,-1.20711 -0.42268,-0.86366 -1.15209,0.71203 -1.34209,-0.82021 -0.23855,-1.92375 0.4125,-0.4125 0.75,-1.275 0.75,-1.91666 0,-0.64167 0.54,-1.16667 1.2,-1.16667 0.66,0 1.7205,-0.5205 2.35667,-1.15667 1.79765,-1.79765 -2.10408,-1.17235 -4.09741,0.65667 -0.89912,0.825 -2.49527,2.07927 -3.54701,2.78727 -1.05174,0.708 -1.43982,1.07461 -0.8624,0.81468 0.57742,-0.25992 1.64284,0.51081 2.36761,1.71273 1.09006,1.80771 1.09009,1.96933 1.5e-4,0.93532 -1.32231,-1.25446 -3.82734,-1.8264 -2.59295,-0.59201 0.36189,0.3619 0.12109,1.3744 -0.53511,2.25 -0.99909,1.33315 -0.96516,1.38876 0.20868,0.34201 0.77097,-0.6875 1.78833,-1.25 2.26079,-1.25 z m 25.5774,0.58333 c -0.78551,-0.59583 -2.13912,-2.11611 -3.00803,-3.3784 -1.33163,-1.93451 -1.6761,-2.04418 -2.19265,-0.69806 -0.35514,0.92546 -0.19715,1.3401 0.37571,0.98605 0.5437,-0.33602 0.98855,-0.1719 0.98855,0.36473 0,0.53663 -0.3375,1.16443 -0.75,1.39512 -0.4125,0.23069 -0.17047,0.27578 0.53785,0.10019 0.70832,-0.17558 1.51519,0.27317 1.79304,0.99723 0.27785,0.72406 1.22035,1.31648 2.09446,1.31648 1.35324,0 1.37717,-0.16089 0.16107,-1.08334 z m 23.16358,0.34979 c 0,-0.51322 -0.48064,-0.93312 -1.06809,-0.93312 -0.58746,0 -0.13746,-1.30697 1,-2.90437 2.26974,-3.18756 2.64759,-5.09563 1.00907,-5.09563 -0.58246,0 -0.7809,0.45 -0.44098,1 0.33992,0.55 0.11492,1 -0.5,1 -0.61492,0 -0.88255,0.38102 -0.59474,0.8467 0.28781,0.46569 -0.79744,2.19758 -2.41167,3.84866 l -2.93497,3.00195 2.97069,0.0845 c 1.63388,0.0464 2.97069,-0.33548 2.97069,-0.84869 z m 2.77069,-1.43312 c 0.1138,-1.375 -0.16285,-2.5 -0.61477,-2.5 -0.63473,0 -0.79066,3.09578 -0.23925,4.75 0.29689,0.89068 0.67696,-0.11066 0.85402,-2.25 z m 43.58797,-2.00772 c -0.31821,-0.82925 0.0764,-2.51675 0.87695,-3.75 0.80053,-1.23325 1.67011,-3.38824 1.93239,-4.78887 0.38827,-2.07338 0.0638,-2.58077 -1.74603,-2.73056 -2.06616,-0.171 -4.15713,2.37532 -2.94551,3.58694 0.28795,0.28795 0.52354,-10e-4 0.52354,-0.64312 0,-0.64167 0.7301,-1.16667 1.62244,-1.16667 1.39809,0 1.43266,0.23397 0.25,1.69196 -0.93255,1.14966 -0.9718,1.45126 -0.12244,0.94098 1.63821,-0.9842 1.5423,0.39764 -0.1858,2.6769 -1.46946,1.93812 -3.25208,0.61219 -1.96871,-1.46435 0.41116,-0.66527 0.27726,-0.88488 -0.31598,-0.51824 -0.56623,0.34995 -1.02951,1.76128 -1.02951,3.13628 0,1.375 0.3466,2.28579 0.77022,2.02398 0.42361,-0.26181 1.02824,0.19639 1.34361,1.01823 0.31537,0.82184 0.7984,1.49426 1.0734,1.49426 0.275,0 0.23965,-0.67847 -0.0786,-1.50772 z m -84.12397,-4.99228 c 0.45499,-0.61931 0.74051,-0.52413 0.75,0.25 0.0231,1.88415 2.70535,1.50012 3.47175,-0.49707 0.45325,-1.18117 -0.13924,-2.4435 -1.8292,-3.89714 -1.37479,-1.18255 -2.22833,-2.42137 -1.89676,-2.75294 0.33157,-0.33157 0.10441,-0.60285 -0.5048,-0.60285 -0.6092,0 -1.38576,0.45 -1.72568,1 -0.33992,0.55 -0.11492,1 0.5,1 0.61492,0 0.82641,0.47185 0.46999,1.04856 -0.43575,0.70506 -1.17653,0.62316 -2.26129,-0.25 -1.41715,-1.14071 -1.40979,-1.00296 0.0606,1.13329 1.2776,1.85622 1.40376,2.75722 0.533,3.80642 -0.8815,1.06214 -0.8182,1.30493 0.27848,1.06815 0.7806,-0.16853 1.74988,-0.75642 2.15396,-1.30642 z m 1.45589,-0.86394 c -0.37925,-0.98833 -1.17591,-1.45415 -1.81325,-1.06025 -0.68116,0.42098 -0.95954,0.17083 -0.69456,-0.62411 0.24323,-0.72969 1.03924,-1.5257 1.76893,-1.76893 0.73709,-0.2457 1.03986,0.0219 0.68127,0.60209 -0.35499,0.57437 -0.12513,1.21775 0.5108,1.42973 0.63593,0.21198 0.94631,1.01516 0.68975,1.78485 -0.35716,1.07148 -0.625,0.98633 -1.14294,-0.36338 z m 6.30942,1.75629 c 0,-0.82763 -1.94173,-1.29565 -2.38691,-0.57533 -0.28881,0.46731 0.13009,0.84965 0.9309,0.84965 0.8008,0 1.45601,-0.12345 1.45601,-0.27432 z m 33,-3.39235 c 0,-0.55 -0.19844,-1 -0.44098,-1 -0.24254,0 -0.7191,0.45 -1.05902,1 -0.33992,0.55 -0.14148,1 0.44098,1 0.58246,0 1.05902,-0.45 1.05902,-1 z m -0.0153,-5.30902 c -0.0125,-1.78123 -0.19661,-1.91046 -0.9847,-0.69098 -1.27319,1.97012 -1.27319,4.28687 0,3.5 0.55,-0.33992 0.99311,-1.60398 0.98469,-2.80902 z m -127.984696,1.86804 c 0,-0.24254 -0.45,-0.7191 -1,-1.05902 -0.55,-0.33992 -1,-0.14148 -1,0.44098 0,0.58246 0.45,1.05902 1,1.05902 0.55,0 1,-0.19844 1,-0.44098 z m -1,-3.5 c 0,-0.51754 -0.45,-1.2191 -1,-1.55902 -0.55,-0.33992 -1,0.0835 -1,0.94098 0,0.85746 0.45,1.55902 1,1.55902 0.55,0 1,-0.42344 1,-0.94098 z m 128.342006,-1.38368 c 0.36189,0.3619 0.65799,-0.0654 0.65799,-0.94966 0,-0.8842 -0.51953,-1.92873 -1.15451,-2.32117 -0.7153,-0.44208 -0.88306,-0.27432 -0.44098,0.44098 0.39244,0.63498 0.26352,1.15451 -0.28648,1.15451 -0.55,0 -1.27811,-0.45 -1.61803,-1 -0.33992,-0.55 -1.15398,-0.99311 -1.80902,-0.98469 -0.83404,0.0107 -0.80053,0.26297 0.11181,0.84164 0.71653,0.45448 1.22574,1.23509 1.13158,1.73469 -0.38179,2.02562 0.13753,2.59358 1.40764,1.53948 0.7381,-0.61257 1.6381,-0.81767 2,-0.45578 z m 49.3411,-2.86284 c -0.31922,-0.79773 -0.55618,-0.56078 -0.60416,0.60417 -0.0434,1.05416 0.19292,1.64479 0.52522,1.3125 0.33229,-0.3323 0.36781,-1.1948 0.0789,-1.91667 z m -178.183106,0.1875 c -0.339919,-0.55 -0.242085,-1 0.217409,-1 0.459493,0 0.614178,-1.9125 0.343744,-4.25 l -0.491698,-4.25 -0.570071,4.5 c -0.55692,4.39619 -0.391553,6 0.61865,6 0.275,0 0.221885,-0.45 -0.118034,-1 z m 57.302036,-5.23079 c -0.50039,-0.52744 2.65082,-3.58768 3.29494,-3.19981 1.03473,0.62309 5.64981,-4.98806 5.60884,-6.8194 -0.0476,-2.1267 -1.70582,-2.36972 -1.70582,-0.25 0,0.825 -0.38812,1.5 -0.86249,1.5 -0.47436,0 -0.73875,-1.12722 -0.58751,-2.50493 0.15123,-1.37771 -0.14299,-2.24662 -0.65383,-1.9309 -0.51084,0.31571 -0.68004,0.97652 -0.37601,1.46845 0.30404,0.49194 -0.35342,1.80064 -1.461,2.90822 -1.23774,1.23774 -1.76436,2.66382 -1.36654,3.70052 0.40488,1.05511 0.25173,1.44228 -0.40899,1.03393 -0.58094,-0.35904 -1.29028,0.24214 -1.57632,1.33596 -0.28604,1.09381 -1.03876,1.98875 -1.67271,1.98875 -0.63395,0 -0.87452,-0.45 -0.5346,-1 0.9976,-1.61416 -0.48966,-1.1533 -3.22713,1 -1.39842,1.1 -2.0319,2 -1.40773,2 0.62417,0 1.13486,0.825 1.13486,1.83333 0,3.12496 1.12419,3.17253 3.66326,0.15501 1.34246,-1.59541 2.30491,-3.04402 2.13878,-3.21913 z m -4.45778,2.05719 c 0.21359,-1.39957 1.10825,-2.23081 2.51233,-2.33425 l 2.18061,-0.16065 -2.19291,2.33425 c -2.7002,2.87422 -2.91627,2.88811 -2.50003,0.16065 z m 8,-8 c 0.21359,-1.39957 1.10825,-2.23081 2.51233,-2.33425 l 2.18061,-0.16065 -2.19291,2.33425 c -2.7002,2.87422 -2.91627,2.88811 -2.50003,0.16065 z m 118.65574,5.6736 c 0,-0.825 -0.43588,-1.5 -0.96862,-1.5 -0.53273,0 -0.70959,0.675 -0.39301,1.5 0.31659,0.825 0.75246,1.5 0.96862,1.5 0.21615,0 0.39301,-0.675 0.39301,-1.5 z m -58.40451,-0.65451 c 0.44208,-0.7153 0.27432,-0.88306 -0.44098,-0.44098 -0.69784,0.43129 -1.15451,0.0484 -1.15451,-0.96794 0,-1.29327 -0.30982,-1.42433 -1.34201,-0.56769 -0.7381,0.61257 -1.53099,1.00517 -1.76197,0.87244 -0.23098,-0.13272 0.23393,0.32118 1.03314,1.00868 1.8065,1.55401 2.74974,1.57857 3.66633,0.0955 z M 58.937705,156.57627 c -0.277413,-0.6875 -0.504386,-0.125 -0.504386,1.25 0,1.375 0.226973,1.9375 0.504386,1.25 0.277412,-0.6875 0.277412,-1.8125 0,-2.5 z m 181.267425,-2.5 c 0.0387,-1.2375 -0.26721,-2.24767 -0.67971,-2.24482 -0.4125,0.003 -0.82975,1.91535 -0.92723,4.25 -0.13105,3.13896 0.046,3.72378 0.67972,2.24482 0.47132,-1.1 0.88857,-3.0125 0.92722,-4.25 z m -66.32718,1.82579 c 0.0721,-2.05441 -0.44617,-3.06314 -1.749,-3.40384 -2.28632,-0.59789 -3.49443,1.09042 -1.90715,2.66518 0.89374,0.8867 1.01285,0.74456 0.50153,-0.59847 -0.50901,-1.33693 -0.28371,-1.61288 0.93501,-1.14522 0.88307,0.33887 1.3433,1.04053 1.02272,1.55923 -0.52271,0.84577 0.11264,3.85073 0.81298,3.84505 0.15476,-0.001 0.32752,-1.31612 0.38391,-2.92193 z M 61.024501,153.99217 c -0.282844,-2.10876 -0.09473,-4.58376 0.418021,-5.5 0.609213,-1.08861 0.568527,-1.6659 -0.117408,-1.6659 -0.577329,0 -1.04969,0.48214 -1.04969,1.07143 0,0.58928 -0.675,1.74643 -1.5,2.57143 -0.825,0.825 -1.493109,2.03035 -1.484687,2.67857 0.0089,0.68767 0.412992,0.55379 0.970073,-0.32143 0.749568,-1.17763 1.095513,-0.80153 1.609687,1.75 0.910954,4.52051 1.779697,4.08079 1.154004,-0.5841 z m 57.934029,-1.3534 c -0.31922,-0.79773 -0.55618,-0.56078 -0.60416,0.60417 -0.0434,1.05416 0.19292,1.64479 0.52522,1.3125 0.33229,-0.3323 0.36781,-1.1948 0.0789,-1.91667 z m 1.98006,-1.24789 c -0.30295,-0.78947 -0.0136,-1.63551 0.64301,-1.8801 0.84627,-0.31525 0.7188,-0.94424 -0.43786,-2.16057 -1.12301,-1.18096 -1.8476,-1.36648 -2.32433,-0.59512 -0.38096,0.6164 -0.3217,0.99708 0.13168,0.84596 0.45338,-0.15113 0.89183,0.17522 0.97433,0.72522 0.0825,0.55 -0.25982,0.88589 -0.7607,0.74643 -0.50089,-0.13946 -0.34764,0.64804 0.34055,1.75 1.45669,2.33254 2.22764,2.63815 1.43332,0.56818 z m 60.58683,-0.44229 c 1.17035,-0.19088 0.88023,-3.12232 -0.30902,-3.12232 -0.59702,0 -0.71835,-0.54531 -0.27812,-1.25 1.43189,-2.29206 1.14966,-3.51373 -0.69999,-3.03004 -2.68601,0.70241 -3.18307,3.09183 -0.89762,4.31496 1.9393,1.03788 1.82017,2.96508 -0.18328,2.96508 -0.55,0 -0.72189,-0.45 -0.38197,-1 0.33992,-0.55 -0.046,-1 -0.85765,-1 -0.81163,0 -1.74317,0.5625 -2.0701,1.25 -0.32694,0.6875 -0.4064,0.23688 -0.1766,-1.00138 0.4849,-2.61274 -0.92469,-2.15757 -1.62623,0.52513 -0.39572,1.51322 0.11001,1.77793 3.12929,1.6379 1.98071,-0.0919 3.93879,-0.22205 4.35129,-0.28933 z m -2.51667,-5.24641 c 0.67834,-0.68342 1.48524,-0.99067 1.79313,-0.68278 0.30789,0.30789 -0.24711,0.86705 -1.23333,1.24258 -1.4252,0.54268 -1.54006,0.42782 -0.5598,-0.5598 z M 60.025424,143.21254 c 0,-1.43755 0.554293,-2.9563 1.231763,-3.375 0.877121,-0.54209 0.913111,-0.95821 0.125,-1.44529 -0.60872,-0.37621 -1.113654,-0.095 -1.122076,0.625 -0.01255,1.07261 -0.164395,1.07398 -0.840809,0.008 -0.500029,-0.78832 -0.732263,0.19735 -0.589024,2.5 0.260746,4.19122 0.28168,4.30102 0.820146,4.30102 0.20625,0 0.375,-1.17618 0.375,-2.61373 z m 51.971376,-3.80775 c -1.22865,-1.22864 -1.43277,-1.02452 -1.50468,1.50468 -0.0741,2.60507 0.0819,2.76105 1.42148,1.42148 1.30055,-1.30055 1.31184,-1.69752 0.0832,-2.92616 z m 4.64025,2.92148 c -0.31659,-0.825 -1.03256,-1.5 -1.59106,-1.5 -0.58531,0 -0.48812,0.63541 0.22943,1.5 0.68469,0.825 1.40067,1.5 1.59106,1.5 0.19039,0 0.0872,-0.675 -0.22943,-1.5 z m 69.01337,-1.70225 c -0.27117,-0.43876 0.13976,-0.79775 0.91317,-0.79775 0.77341,0 1.89451,1.0125 2.49134,2.25 0.97411,2.01981 1.08486,1.84078 1.08252,-1.75 -0.002,-2.32762 -0.28679,-3.3256 -0.68232,-2.38696 -0.48503,1.15104 -1.25255,1.38598 -2.67971,0.82029 -1.65144,-0.6546 -1.70048,-0.80501 -0.28138,-0.86304 1.18137,-0.0483 1.519,-0.59047 1.08006,-1.73433 -0.40044,-1.04353 -0.24137,-1.41857 0.4266,-1.00575 0.58583,0.36207 1.35206,-0.0894 1.70272,-1.00317 0.79458,-2.07065 -0.89119,-4.00464 -1.96964,-2.25966 -0.49466,0.80038 -0.35708,0.98806 0.38713,0.52811 1.89097,-1.16868 1.31917,0.1238 -1.30969,2.96038 -1.35531,1.46241 -2.36781,3.17309 -2.25,3.80153 0.11781,0.62843 -0.3483,1.0301 -1.0358,0.8926 -1.58291,-0.31658 -1.61141,0.98859 -0.0556,2.54443 0.9259,0.9259 1.36069,0.92539 1.93401,-0.002 0.40678,-0.65817 0.51773,-1.55566 0.24656,-1.99442 z m 2.625,2.20225 c 0,-0.55 -0.19844,-1 -0.44098,-1 -0.24254,0 -0.7191,0.45 -1.05902,1 -0.33992,0.55 -0.14148,1 0.44098,1 0.58246,0 1.05902,-0.45 1.05902,-1 z M 61.732847,133.68985 c -0.218315,-1.72504 -0.698851,-3.41254 -1.067857,-3.75 -0.369005,-0.33747 -0.364578,0.66162 0.0098,2.22021 0.44651,1.85868 0.322867,2.6126 -0.359323,2.19098 -0.572006,-0.35354 -1.040043,0.0587 -1.040043,0.91621 0,0.85746 0.642231,1.55902 1.42718,1.55902 1.017256,0 1.313169,-0.90087 1.030243,-3.13642 z m 174.225683,-4.05108 c -0.31922,-0.79773 -0.55618,-0.56078 -0.60416,0.60417 -0.0434,1.05416 0.19292,1.64479 0.52522,1.3125 0.33229,-0.33229 0.36781,-1.1948 0.0789,-1.91667 z m -5,-1 c -0.31922,-0.79773 -0.55618,-0.56078 -0.60416,0.60417 -0.0434,1.05416 0.19292,1.64479 0.52522,1.3125 0.33229,-0.3323 0.36781,-1.1948 0.0789,-1.91667 z m 4.69792,-3.49555 c -0.26759,-1.47568 -0.90147,-3.38818 -1.40863,-4.25 -0.69337,-1.17827 -0.88334,-0.82281 -0.76588,1.43305 0.13516,2.59572 1.37592,5.5 2.3497,5.5 0.17124,0 0.0924,-1.20737 -0.17519,-2.68305 z m -45.88103,0.68305 c -0.33992,-0.55 -1.15398,-0.99311 -1.80902,-0.98469 -0.71561,0.009 -0.59227,0.40223 0.30902,0.98469 1.92112,1.24153 2.2673,1.24153 1.5,0 z m 42.29411,-2.64378 c -0.29142,-1.37482 -0.54288,-1.12336 -0.96961,0.9696 -0.37205,1.82482 -0.23268,2.48236 0.39346,1.85622 0.53328,-0.53328 0.79255,-1.8049 0.57615,-2.82582 z m -90.68318,0.35471 c -0.69309,-0.69309 -0.72551,-1.47041 -0.0931,-2.23239 0.69966,-0.84303 0.27157,-1.13172 -1.53509,-1.03521 -1.37792,0.0736 -2.50023,0.45397 -2.49401,0.84525 0.006,0.39128 0.24514,0.70195 0.53096,0.69037 1.14848,-0.0465 3.23463,2.57993 2.72086,3.42556 -0.30225,0.49748 0.009,0.55919 0.69209,0.13713 0.87707,-0.54206 0.92942,-1.0796 0.17831,-1.83071 z m -76.427812,-1.89843 c -0.319226,-0.79773 -0.556183,-0.56078 -0.604167,0.60417 -0.04342,1.05416 0.192928,1.64479 0.52522,1.3125 0.332291,-0.3323 0.367818,-1.1948 0.07895,-1.91667 z m 124.821622,1.17983 c 0.34253,-0.55422 -0.0522,-1.68267 -0.87722,-2.50767 -0.95027,-0.95026 -1.73194,-1.12472 -2.13286,-0.47602 -0.34807,0.56319 -1.16426,0.71429 -1.81376,0.33578 -0.64949,-0.37852 -0.32366,0.28914 0.72409,1.48369 2.09675,2.39052 3.15596,2.69131 4.09975,1.16422 z M 69.958538,120.63877 c -0.319226,-0.79773 -0.556183,-0.56078 -0.604167,0.60417 -0.04342,1.05416 0.192928,1.64479 0.52522,1.3125 0.332291,-0.3323 0.367818,-1.1948 0.07895,-1.91667 z m 43.259002,-3.38224 c -0.93063,-1.12135 -0.89058,-1.44731 0.18544,-1.50921 1.27911,-0.0736 0.45308,-0.66568 -1.73835,-1.24605 -0.36343,-0.0962 -0.8225,1.30216 -1.02015,3.10759 -0.33308,3.04258 -0.20876,3.20199 1.70036,2.18026 1.6472,-0.88156 1.82198,-1.38878 0.8727,-2.53259 z m 55.25705,-1.43026 c 0.66483,0 0.61607,-0.5177 -0.13388,-1.42133 -0.96308,-1.16044 -0.82272,-1.328 0.7647,-0.91288 1.06936,0.27965 2.18995,0.11096 2.4902,-0.37485 0.30025,-0.48581 -1.22397,-0.89363 -3.38714,-0.90627 -4.08624,-0.0239 -4.68656,0.46182 -2.84592,2.30246 0.78285,0.78285 0.78285,1.2752 0,1.75902 -0.59792,0.36954 -1.08713,0.10533 -1.08713,-0.58713 0,-0.93052 -0.29271,-0.96631 -1.12186,-0.13716 -0.61702,0.61702 -1.81584,0.85554 -2.66404,0.53006 -1.14368,-0.43888 -1.30996,-0.22488 -0.64346,0.82814 0.4943,0.78097 0.96188,1.75744 1.03905,2.16994 0.0772,0.4125 0.19656,1.015 0.26531,1.33889 0.0687,0.3239 1.50953,-0.5761 3.20173,-2 1.69219,-1.42389 3.54729,-2.58889 4.12244,-2.58889 z m -101.199166,3 c 0,-0.55 -0.198442,-1 -0.440983,-1 -0.242541,0 -0.719098,0.45 -1.059017,1 -0.339919,0.55 -0.141476,1 0.440983,1 0.582459,0 1.059017,-0.45 1.059017,-1 z m 165.057226,-1.43104 c -0.57193,-0.68914 -0.70628,-1.62122 -0.29855,-2.07129 0.40772,-0.45008 0.2189,-0.51939 -0.41961,-0.15402 -0.95804,0.54819 -1.07481,1.80285 -0.41558,4.46537 0.0421,0.16996 0.54836,0.0174 1.12507,-0.33903 0.72647,-0.44899 0.72914,-1.03292 0.009,-1.90103 z M 69.286118,115.84625 c -0.710351,-1.3273 -0.639656,-2.00207 0.247296,-2.36036 0.904069,-0.36521 0.917953,-0.52321 0.05103,-0.58067 -0.655041,-0.0434 -1.420834,0.29296 -1.701762,0.74751 -0.788195,1.27532 0.506014,5.22157 1.509139,4.6016 0.507804,-0.31384 0.462479,-1.34643 -0.1057,-2.40808 z m 51.259022,-1.01998 c 0.88674,0 1.87249,-0.42108 2.19056,-0.93573 0.3573,-0.57813 -0.62994,-0.5892 -2.58336,-0.029 -1.73891,0.49871 -3.6601,0.59183 -4.26929,0.20693 -0.62941,-0.39767 0.18763,-0.99087 1.89237,-1.37392 2.52202,-0.5667 2.32064,-0.64974 -1.2639,-0.5212 -3.75742,0.13473 -4.05438,0.30799 -2.5,1.4586 0.97014,0.71814 1.60628,2.06622 1.41363,2.99573 -0.32292,1.55807 -0.19966,1.55372 1.57875,-0.0557 1.06095,-0.96013 2.65451,-1.74571 3.54124,-1.74571 z m 9.43935,-1.37321 c -0.49714,-1.49198 -5.37574,-1.54473 -5.37574,-0.0581 0,0.6626 0.85015,0.9346 1.98971,0.6366 1.32969,-0.34772 1.75475,-0.14015 1.28139,0.62575 -0.46324,0.74955 -0.15673,0.93441 0.8859,0.53432 0.87681,-0.33647 1.42524,-1.11881 1.21874,-1.73855 z m 53.74633,0.71694 c -1.3305,-0.97289 -2.02981,-1.03236 -2.53463,-0.21554 -0.38344,0.62042 -1.20482,0.81429 -1.82528,0.43083 -0.62046,-0.38347 -0.86922,-1.11612 -0.55278,-1.62812 0.31643,-0.51199 -0.12623,-0.9309 -0.98369,-0.9309 -1.94681,0 -1.95742,0.45875 -0.0546,2.36156 0.82743,0.82743 2.91832,1.46422 4.64643,1.41509 2.88189,-0.0819 2.98989,-0.20057 1.30455,-1.43292 z m -23.77229,-1.53123 c -0.31922,-0.79773 -0.55618,-0.56078 -0.60416,0.60417 -0.0434,1.05416 0.19292,1.64479 0.52522,1.3125 0.33229,-0.3323 0.36781,-1.1948 0.0789,-1.91667 z m 2.77418,1.2566 c 0.31644,-0.512 0.11799,-1.21356 -0.44098,-1.55902 -0.55897,-0.34546 -1.01631,0.0734 -1.01631,0.9309 0,1.75653 0.60006,2.01516 1.45729,0.62812 z m -92.457286,-3.0691 c 0,-0.55 -0.476558,-1 -1.059017,-1 -0.582459,0 -0.780902,0.45 -0.440983,1 0.339919,0.55 0.816476,1 1.059017,1 0.242541,0 0.440983,-0.45 0.440983,-1 z m 156.999996,-1.16601 c 0,-0.57638 -0.675,-0.78895 -1.5,-0.47236 -0.825,0.31658 -1.5,0.13972 -1.5,-0.39301 0,-1.90545 3.083,-0.92545 4.03113,1.28138 0.76318,1.77633 0.91428,1.84692 0.71778,0.33529 -0.1369,-1.05309 -1.63228,-2.68724 -3.32306,-3.63144 -2.92991,-1.63619 -3.06793,-1.63238 -2.94168,0.0813 0.26824,3.64102 4.51583,6.27363 4.51583,2.79886 z m -2.70332,-6.22568 c -1.23131,-1.63909 -2.04677,-2.03243 -2.59143,-1.25 -0.48275,0.6935 -0.68169,0.33423 -0.50675,-0.91517 0.17497,-1.24964 -1.23808,-3.800553 -3.60062,-6.499996 -2.13874,-2.443729 -3.57165,-3.880643 -3.18423,-3.193143 0.44473,0.789219 0.0683,1.25 -1.0213,1.25 -2.02006,0 -1.28449,1.046029 0.96804,1.376631 1.70574,0.250349 5.63961,3.50883 5.63961,4.671368 0,0.405913 -0.7251,1.016272 -1.61134,1.35635 -1.12689,0.43243 -1.44541,0.18593 -1.05944,-0.819895 0.30354,-0.791025 -0.0964,-1.976229 -0.88866,-2.633786 -1.02171,-0.847946 -1.44056,-0.869203 -1.44056,-0.07311 0,0.617345 0.5625,1.136757 1.25,1.154248 0.70412,0.01792 0.40229,0.672977 -0.69113,1.5 -1.06762,0.807503 -1.41924,1.468193 -0.78138,1.468193 0.63786,0 0.90072,0.675 0.58414,1.5 -0.31659,0.825 -0.0509,1.5 0.5904,1.5 0.6413,0 0.91703,-0.40285 0.61273,-0.89521 -0.62707,-1.01462 2.40996,-2.4634 3.29941,-1.57395 0.31785,0.31785 -0.0841,1.03867 -0.89313,1.60182 -1.11945,0.7792 -0.81529,0.91914 1.27261,0.58552 1.58346,-0.25302 3.22098,0.13674 3.87244,0.92171 1.92942,2.3248 2.07543,1.49076 0.18059,-1.03158 z M 77.971717,100.13577 c 0.115667,-2.045183 -0.204691,-3.113326 -0.819743,-2.733202 -0.555287,0.343185 -0.761668,0.871918 -0.458625,1.174962 0.303043,0.303043 -0.229517,1.159086 -1.183469,1.90232 -1.600918,1.24729 -1.580474,1.29823 0.265544,0.66164 1.694505,-0.58433 1.81149,-0.45742 0.765876,0.83088 -0.979157,1.20642 -0.978494,1.52057 0.0032,1.52057 0.6997,0 1.319835,-1.45873 1.427204,-3.35717 z m 7.372607,-5.059499 c 0.0379,-0.4125 0.232196,-1.9875 0.43178,-3.5 0.253559,-1.921527 -0.08167,-2.75 -1.112736,-2.75 -0.844773,0 -1.349999,0.738553 -1.181781,1.727558 0.16161,0.950157 -0.268663,1.737657 -0.956163,1.75 -0.6875,0.01234 -1.25,0.359942 -1.25,0.772442 0,0.4125 0,1.2 0,1.75 0,1.146356 3.964179,1.389922 4.0689,0.25 z M 209.55205,85.836382 c -0.86509,-1.010354 -2.25223,-1.572967 -3.08773,-1.252358 -0.94667,0.363274 -1.26121,0.168262 -0.83663,-0.518716 0.37419,-0.605462 0.15348,-1.426463 -0.49047,-1.824447 -0.68951,-0.426145 -0.90412,-0.292085 -0.52205,0.326117 0.35682,0.577348 0.0193,1.291258 -0.74997,1.586467 -0.97675,0.374816 -1.32477,-0.136994 -1.15358,-1.696509 0.16828,-1.533009 -0.527,-2.597648 -2.21743,-3.395404 -2.32853,-1.09889 -2.37429,-1.064595 -0.84068,0.630034 0.89205,0.985703 1.61502,2.431753 1.6066,3.213446 -0.0127,1.175655 -0.18283,1.162048 -0.98469,-0.07874 -0.53316,-0.825 -0.97627,-1.120978 -0.98469,-0.657729 -0.008,0.463249 0.84414,1.934888 1.89459,3.27031 1.33966,1.703101 2.08608,2.048764 2.5,1.15773 0.4692,-1.010045 0.70962,-1.014206 1.17343,-0.02031 0.32084,0.6875 1.02239,1.25 1.55902,1.25 0.53663,0 0.71679,-0.418906 0.40036,-0.930902 -0.31644,-0.511996 -0.11799,-1.213553 0.44098,-1.559017 0.56078,-0.346582 1.01631,0.28071 1.01631,1.399516 0,1.343189 0.48058,1.843218 1.42368,1.481315 1.20679,-0.463088 1.18439,-0.825798 -0.14705,-2.380803 z M 93.820548,84.892302 c -0.03583,-2.694968 -0.111116,-2.734381 -2.248599,-1.177177 -3.318693,2.417742 -3.46699,3.801939 -0.416614,3.888669 2.317032,0.06588 2.697,-0.320687 2.665213,-2.711492 z m -2.545124,0.933969 c 0,-0.55 0.476558,-1 1.059017,-1 0.582459,0 0.780902,0.45 0.440983,1 -0.339919,0.55 -0.816476,1 -1.059017,1 -0.242541,0 -0.440983,-0.45 -0.440983,-1 z m 108.999996,1 c 0,-0.55 -0.19844,-1 -0.44098,-1 -0.24254,0 -0.7191,0.45 -1.05902,1 -0.33992,0.55 -0.14148,1 0.44098,1 0.58246,0 1.05902,-0.45 1.05902,-1 z m -94.20584,-8.148377 c -0.99643,-0.632125 -0.93758,-0.82452 0.25584,-0.83631 0.8525,-0.0084 2.11497,0.547187 2.80548,1.234687 1.00645,1.002054 1.15177,0.65493 0.73264,-1.75 -0.61621,-3.535735 0.50877,-5.742275 3.07,-6.021506 2.66684,-0.290745 5.34188,-1.559916 5.34188,-2.534456 0,-1.162259 -7.24548,1.886919 -8.59888,3.618737 -0.60438,0.773376 -1.39188,1.113133 -1.75,0.755015 -0.35811,-0.358118 -0.65112,0.275732 -0.65112,1.408555 0,2.355429 -2.82583,3.847822 -4.36722,2.306438 -0.96228,-0.962284 0.29929,-1.517194 2.61722,-1.151204 0.4125,0.06513 0.75,-0.566953 0.75,-1.404632 0,-1.33058 -0.31814,-1.314598 -2.51749,0.126467 -1.9731,1.292824 -2.27098,1.946537 -1.37755,3.023053 0.88696,1.068723 0.77988,1.373533 -0.48252,1.373533 -0.89234,0 -1.62244,-0.476558 -1.62244,-1.059017 0,-0.582459 -0.498039,-0.751209 -1.106759,-0.375 -1.741248,1.07615 1.105379,2.373166 4.895769,2.230671 2.1375,-0.08036 2.84359,-0.413139 2.00515,-0.945031 z m 90.09689,-1.654465 c -0.68613,-1.098679 -1.84231,-1.769355 -2.56928,-1.49039 -0.75777,0.290782 -1.32177,-0.178496 -1.32177,-1.099779 0,-0.883844 -0.45,-1.606989 -1,-1.606989 -1.21984,0 -0.87894,2.215791 0.5,3.25 0.62717,0.470375 0.44075,1.117125 -0.5,1.734687 -1.95094,1.280714 -0.41356,1.307012 1.96578,0.03363 1.39019,-0.744005 1.98526,-0.588294 2.4578,0.643128 0.34292,0.893648 0.86908,1.379227 1.16925,1.079065 0.30016,-0.300162 -0.0156,-1.444669 -0.70178,-2.543349 z m -21.48033,-6.052701 c 0.29082,-0.470549 -0.69513,-0.639151 -2.19098,-0.374673 -1.85122,0.32731 -2.4004,0.152505 -1.71974,-0.547392 0.55,-0.565544 1.81127,-1.184442 2.80282,-1.375327 2.12454,-0.409 2.37158,-2.130811 0.34832,-2.427762 -0.77212,-0.113322 -2.35949,-0.509349 -3.52749,-0.88006 -1.3069,-0.414791 -2.12365,-0.240804 -2.12365,0.452386 0,0.619523 -0.35659,0.906022 -0.79241,0.636666 -0.43583,-0.269356 -0.85376,0.324629 -0.92874,1.319968 -0.20538,2.726526 6.73598,5.454795 8.13187,3.196194 z m -7.32739,-2.503781 c 0.22917,-0.197628 1.76667,-0.661297 3.41667,-1.030376 2.19092,-0.490074 2.59546,-0.397296 1.5,0.34401 -1.35037,0.913808 -5.92015,1.551749 -4.91667,0.686366 z m 14.75,1.344011 c 1.44151,-0.01324 1.46402,-0.146274 0.16667,-0.984687 -1.95837,-1.265597 -3.28218,-1.265597 -2.5,0 0.33992,0.55 -0.19602,1.006891 -1.19098,1.015313 -1.53014,0.01295 -1.57778,0.162171 -0.30902,0.967954 0.95526,0.60668 1.62105,0.601119 1.83333,-0.01531 0.18334,-0.532375 1.08334,-0.974845 2,-0.983267 z m 4.16667,1.407663 c 0,-0.827627 -1.94173,-1.295651 -2.38691,-0.575329 -0.28881,0.467305 0.13009,0.849646 0.9309,0.849646 0.8008,0 1.45601,-0.123443 1.45601,-0.274317 z"
       style="fill:#f43e37" />
  </g>
  <path
     id="path686"
     d=""
     style="fill:#f9f9f9;stroke-width:0.70710677" />
  <path
     id="path688"
     d="m 62.549139,127.88905 c -3.773676,-1.99077 -6.270233,-5.98635 -6.286769,-10.06157 -0.01612,-3.973 2.479133,-7.60888 11.540073,-16.81525 4.147098,-4.213657 7.540178,-7.878904 7.540178,-8.144991 0,-0.266087 -3.193765,-3.659806 -7.097256,-7.541597 -3.90349,-3.88179 -8.240016,-8.710861 -9.636724,-10.731269 -2.314641,-3.348247 -2.511451,-4.011305 -2.223019,-7.489417 0.696884,-8.403505 8.734183,-13.333186 16.469103,-10.10133 1.329034,0.555306 6.403438,4.889589 11.276452,9.631738 l 8.860025,8.62209 9.861958,-9.25164 c 5.42407,-5.088402 10.69982,-9.461933 11.72388,-9.718956 5.21782,-1.309589 11.79473,1.512337 14.15289,6.072518 1.55025,2.997863 1.34814,8.355934 -0.42491,11.264337 -0.81373,1.334817 -5.16109,6.187803 -9.66078,10.784415 l -8.18125,8.357474 8.49461,8.663758 c 4.67203,4.76507 9.05566,9.74872 9.7414,11.07478 1.60227,3.09846 1.20328,9.21034 -0.77892,11.93174 -1.80144,2.47322 -6.9582,5.0972 -10.01724,5.0972 -4.0223,0 -7.06474,-2.03866 -16.15379,-10.82425 l -8.72876,-8.43732 -8.95269,8.65378 c -4.92398,4.75958 -10.004929,9.09343 -11.290997,9.63078 -3.393173,1.41777 -6.68218,1.20326 -10.227464,-0.66702 z"
     style="fill:#f9f9f9;stroke-width:0.70710677" />
  <path
     id="path690"
     d="m 62.898298,128.18574 c -5.811369,-2.63921 -8.267554,-9.67568 -5.364071,-15.36698 0.7917,-1.55186 5.164522,-6.70972 9.717381,-11.46191 l 8.277925,-8.640339 -8.157224,-8.332929 C 57.52189,74.320986 56.256914,72.410305 56.253381,67.589032 c -0.0047,-6.432397 5.318476,-11.561852 12.018172,-11.580779 4.337172,-0.01225 6.528415,1.474414 16.362917,11.101548 l 8.327057,8.151475 9.044993,-8.630874 c 4.97475,-4.74698 9.97209,-9.117209 11.1052,-9.711618 2.76524,-1.450596 9.02129,-0.927364 11.58092,0.968585 3.43241,2.542422 5.0972,5.736578 5.0972,9.779765 0,4.797314 -1.46304,6.970394 -11.54056,17.141445 l -7.8818,7.954951 7.8818,7.95495 c 10.07752,10.17105 11.54056,12.34413 11.54056,17.14145 0,4.67579 -2.03077,7.90383 -6.34272,10.08216 -3.77247,1.9058 -7.03228,2.02019 -10.52098,0.36923 -1.41995,-0.67198 -6.47966,-5.01263 -11.24379,-9.6459 l -8.66206,-8.42412 -8.874569,8.63624 c -11.277834,10.97497 -14.484253,12.37966 -21.247423,9.3082 z"
     style="fill:#f9f9f9;stroke-width:0.70710677" />
  <path
     id="path692"
     d="m 62.494834,128.09993 c -5.384264,-2.84422 -7.732639,-9.71193 -5.168581,-15.11529 0.679976,-1.43294 5.065082,-6.59006 9.74468,-11.46027 L 75.579295,92.669453 67.744396,84.76154 C 57.83697,74.761786 56.250738,72.432115 56.250738,67.881004 c 0,-6.573516 4.282676,-11.185886 10.895501,-11.734273 5.195946,-0.430889 7.047993,0.717633 17.18589,10.657596 l 8.64143,8.472714 8.968921,-8.6179 c 4.93291,-4.739845 9.92754,-9.113621 11.09918,-9.719501 2.84216,-1.469738 9.07135,-0.963036 11.65098,0.947729 3.43241,2.542422 5.0972,5.736578 5.0972,9.779765 0,4.797314 -1.46304,6.970394 -11.54056,17.141445 l -7.8818,7.954951 7.8818,7.95495 c 10.07752,10.17105 11.54056,12.34413 11.54056,17.14145 0,4.67579 -2.03077,7.90383 -6.34272,10.08216 -3.95793,1.99949 -8.11715,2.03861 -11.28701,0.10617 -1.33482,-0.81373 -6.18734,-5.16063 -10.78338,-9.65976 l -8.35644,-8.18024 -8.356438,8.18024 c -4.596042,4.49913 -9.448562,8.84603 -10.783379,9.65976 -3.07221,1.87291 -7.896468,1.8948 -11.385639,0.0517 z"
     style="fill:#f9f9f9;stroke-width:0.70710677" />
  <path
     id="path694"
     d="m 62.494834,128.09993 c -3.720547,-1.96536 -5.733335,-5.14524 -6.106704,-9.64758 -0.403558,-4.86637 0.82842,-6.78156 11.346859,-17.63942 l 7.866932,-8.120787 -7.846212,-7.919258 C 57.714958,74.638659 56.250738,72.461636 56.250738,67.667134 c 0,-6.404247 4.291301,-10.972732 10.815169,-11.513742 5.287682,-0.438495 7.090353,0.673741 17.272304,10.656898 l 8.647513,8.478678 8.874456,-8.578159 c 10.44566,-10.096909 11.894,-10.990341 17.11449,-10.557417 6.52387,0.54101 10.81517,5.109495 10.81517,11.513742 0,4.796337 -1.46345,6.970788 -11.52816,17.129011 l -7.86941,7.942516 8.547,8.674489 c 4.70086,4.77097 9.06531,9.69284 9.69879,10.93748 1.44137,2.83195 1.48629,8.12054 0.0919,10.81705 -2.718,5.25604 -10.74871,7.97408 -15.81676,5.35329 -1.24232,-0.64243 -6.24249,-5.00988 -11.1115,-9.70546 l -8.85273,-8.5374 -8.320764,8.14531 c -4.57642,4.47992 -9.412886,8.81111 -10.747703,9.62484 -3.07221,1.87291 -7.896468,1.8948 -11.385639,0.0517 z"
     style="fill:#ffffff;stroke-width:0.70710677" />
  <path
     id="path702"
     d="M 79.938815,184.40236 C 59.29595,180.92867 43.180858,172.874 28.618779,158.7515 17.181454,147.65943 9.7662752,135.80411 5.0395902,121.05332 1.6867036,110.58981 0.79362159,104.57054 0.78976446,92.409977 0.78617201,81.083555 1.7263222,74.930255 5.0848285,64.298704 14.56633,34.284441 38.991177,11.445122 70.746427,2.8994991 75.244977,1.688899 79.131419,1.3044454 89.726771,1.0219293 104.79247,0.62021548 110.26012,1.2418456 120.59745,4.531688 c 35.74904,11.377079 61.62871,43.355357 64.35644,79.522182 0.79523,10.544016 -0.21607,24.07644 -2.41735,32.34694 -9.16505,34.4343 -37.99084,61.01697 -72.90234,67.22936 -8.88093,1.58034 -22.749694,1.94097 -29.695385,0.77219 z m -6.326937,-55.59431 c 1.627117,-0.78767 6.739202,-5.04716 11.36018,-9.46554 l 8.401786,-8.03341 7.424626,7.2155 c 10.16128,9.8751 12.81687,11.71587 16.89988,11.71449 6.85169,-0.002 12.16296,-4.98514 12.63512,-11.85379 0.24684,-3.59079 0.0332,-4.41929 -1.86552,-7.23699 -1.17936,-1.75009 -5.48026,-6.49674 -9.55757,-10.54811 l -7.41328,-7.366133 7.48519,-7.836666 c 4.11686,-4.310169 8.39182,-9.251304 9.49993,-10.980308 7.21923,-11.264355 -6.29602,-24.606994 -17.14784,-16.928837 -1.71121,1.210763 -6.52093,5.569605 -10.68828,9.686316 L 93.06913,74.659504 84.688267,66.45536 C 74.665672,56.644097 72.648191,55.293076 68.014276,55.289514 c -6.369041,-0.0049 -11.15882,4.09835 -12.170689,10.426225 -0.965054,6.035123 -0.231932,7.356211 9.758774,17.58538 l 9.259618,9.480633 -9.249456,9.408238 c -7.473297,7.6016 -9.343416,9.90909 -9.738754,12.01643 -2.101016,11.19938 7.848119,19.3893 17.738109,14.60163 z"
     style="fill:#ff2a2a;stroke-width:0.70710677" />
</svg>
