<?xml version="1.0" encoding="UTF-8" standalone="no"?>
<svg
   xmlns:dc="http://purl.org/dc/elements/1.1/"
   xmlns:cc="http://creativecommons.org/ns#"
   xmlns:rdf="http://www.w3.org/1999/02/22-rdf-syntax-ns#"
   xmlns:svg="http://www.w3.org/2000/svg"
   xmlns="http://www.w3.org/2000/svg"
   xmlns:sodipodi="http://sodipodi.sourceforge.net/DTD/sodipodi-0.dtd"
   xmlns:inkscape="http://www.inkscape.org/namespaces/inkscape"
   aria-hidden="true"
   focusable="false"
   data-prefix="fas"
   data-icon="sign-out-alt"
   class="svg-inline--fa fa-sign-out-alt fa-w-16"
   role="img"
   viewBox="0 0 512 512"
   version="1.1"
   id="svg4744"
   sodipodi:docname="sign-out-alt-solid.svg"
   inkscape:version="0.92.5 (2060ec1f9f, 2020-04-08)">
  <metadata
     id="metadata4750">
    <rdf:RDF>
      <cc:Work
         rdf:about="">
        <dc:format>image/svg+xml</dc:format>
        <dc:type
           rdf:resource="http://purl.org/dc/dcmitype/StillImage" />
        <dc:title></dc:title>
      </cc:Work>
    </rdf:RDF>
  </metadata>
  <defs
     id="defs4748" />
  <sodipodi:namedview
     pagecolor="#ffffff"
     bordercolor="#fff"
     borderopacity="1"
     objecttolerance="10"
     gridtolerance="10"
     guidetolerance="10"
     inkscape:pageopacity="0"
     inkscape:pageshadow="2"
     inkscape:window-width="1366"
     inkscape:window-height="741"
     id="namedview4746"
     showgrid="false"
     inkscape:zoom="0.921875"
     inkscape:cx="19.172605"
     inkscape:cy="285.01598"
     inkscape:window-x="0"
     inkscape:window-y="28"
     inkscape:window-maximized="0"
     inkscape:current-layer="svg4744" />
  <path
     d="m 507.84746,251.30508 -168,168 c -15,15 -41,4.5 -41,-17 v -96 h -136 c -13.3,0 -24,-10.7 -24,-24 v -96 c 0,-13.3 10.7,-24 24,-24 h 136 V 66.305085 c 0,-21.4 25.9,-32 41,-17 l 168,167.999995 c 9.3,9.4 9.3,24.6 0,34 z m -305,163 v -40 c 0,-6.6 -5.4,-12 -12,-12 h -84 c -17.700002,0 -32.000002,-14.3 -32.000002,-32 v -192 c 0,-17.7 14.3,-32 32.000002,-32 h 84 c 6.6,0 12,-5.4 12,-11.999995 v -40 c 0,-6.6 -5.4,-12 -12,-12 h -84 c -53.000002,0 -96.000002,43 -96.000002,95.999995 v 192 c 0,53 43,96 96.000002,96 h 84 c 6.6,0 12,-5.4 12,-12 z"
     id="path4742"
     inkscape:connector-curvature="0"
     style="fill:currentColor" />
  <path
     style="opacity:1;fill:#1a1a1a;fill-opacity:1;stroke-width:0.54237288;paint-order:normal"
     d="M 96.192938,425.46183 C 67.67571,422.13807 42.178816,406.261 26.342049,381.96525 17.7783,368.8273 12.520038,352.77702 11.382694,336.30343 10.710843,326.57217 10.730695,142.03715 11.404654,132.16621 14.187217,91.412248 41.867987,57.250798 81.094156,46.160853 c 11.61658,-3.284216 9.850669,-3.187827 62.644064,-3.419321 34.52216,-0.151376 49.13241,-0.03918 50.58527,0.388472 2.60065,0.765504 5.55056,3.349335 7.0738,6.195958 1.16882,2.184274 1.18839,2.595937 1.18839,25.000504 0,22.497405 -0.0149,22.807572 -1.2046,25.032282 -1.46241,2.734752 -4.63277,5.447352 -7.20218,6.162282 -1.16033,0.32286 -19.20692,0.52937 -46.42171,0.53122 -42.5581,0.003 -44.70833,0.0503 -48.712656,1.07445 -2.304081,0.58929 -5.699059,1.86822 -7.544385,2.84207 -4.669228,2.46412 -11.026012,8.92757 -13.239034,13.46116 -3.646623,7.47049 -3.404247,-0.4251 -3.404247,110.89654 0,111.10863 -0.239018,103.27344 3.379205,110.77381 2.546278,5.27829 8.641768,11.29296 14.110292,13.92322 7.50419,3.60937 6.636491,3.55429 56.155045,3.56474 48.78809,0.0103 46.75153,-0.11777 50.20174,3.15683 0.84766,0.80451 2.068,2.43902 2.71186,3.63224 1.14629,2.12432 1.17067,2.64386 1.17067,24.94916 0,22.4974 -0.0149,22.80757 -1.2046,25.03228 -1.46241,2.73475 -4.63277,5.44735 -7.20218,6.16228 -2.33699,0.65026 -92.36558,0.59587 -97.985962,-0.0592 z"
     id="path4942"
     inkscape:connector-curvature="0" />
  <path
     style="opacity:1;fill:#fff;fill-opacity:1;stroke-width:1.08474576;paint-order:normal"
     d="m 315.46871,424.37873 c -5.87646,-2.0971 -11.04884,-6.39449 -13.40447,-11.13686 -1.91131,-3.84788 -2.07149,-7.65595 -2.35251,-55.92564 l -0.30154,-51.79661 h -71.33966 -71.33966 l -5.8652,-3.52543 c -4.42076,-2.65721 -6.54609,-4.85415 -8.62998,-8.92077 l -2.76478,-5.39536 v -53.72329 -53.72329 l 2.71186,-4.83319 c 3.29037,-5.86422 10.04971,-10.82563 16.42725,-12.05773 2.59892,-0.5021 35.33786,-0.93417 72.75321,-0.96014 l 68.02792,-0.0472 0.31107,-51.87729 0.31106,-51.877285 2.99232,-4.520228 c 6.27243,-9.475231 18.03484,-13.463329 28.2222,-9.568865 3.68694,1.409461 21.78312,18.972114 92.6304,89.899368 93.37144,93.47684 90.36737,90.15479 90.38632,99.95405 0.019,9.81643 2.80337,6.72567 -89.38823,99.22407 -91.5409,91.84553 -92.14266,92.39263 -101.52097,92.3012 -2.08814,-0.0204 -5.62811,-0.69062 -7.86661,-1.48946 z"
     id="path4944"
     inkscape:connector-curvature="0" />
  <path
     style="opacity:1;fill:#ffff;fill-opacity:1;stroke-width:1.08474576;paint-order:normal"
     d="M 89.572605,424.29577 C 52.681545,417.3248 23.741498,390.14492 13.924222,353.24843 L 11.47091,344.02809 V 234.46877 c 0,-101.03003 0.148595,-110.13809 1.908715,-116.99356 C 22.341069,82.571388 45.249581,57.945893 79.26752,46.649051 l 9.220339,-3.061934 53.206511,-0.343784 c 52.64336,-0.340145 53.23712,-0.319709 56.09823,1.930844 1.59045,1.251045 3.39394,4.082933 4.00778,6.293084 1.4579,5.249275 1.4452,40.799365 -0.0165,46.062612 -2.21317,7.969367 -1.02251,7.788287 -55.21175,8.396517 l -48.321569,0.54238 -5.492561,2.89878 c -5.836312,3.08021 -12.101368,9.29559 -15.32743,15.20591 -1.851781,3.39257 -1.95967,9.41292 -1.95967,109.35293 v 105.76272 l 2.67617,5.23907 c 3.213526,6.29104 9.350912,12.06719 16.174103,15.22213 4.822082,2.22966 6.869127,2.33923 53.444677,2.86083 54.23463,0.60737 51.74446,0.21269 54.06579,8.56939 1.44088,5.18713 1.39412,40.75736 -0.0604,45.99551 -0.76956,2.77128 -2.27994,4.81608 -4.60412,6.23324 -3.29549,2.0094 -5.73872,2.10458 -51.73004,2.01516 -35.13429,-0.0683 -50.337669,-0.48433 -55.864411,-1.52867 z"
     id="path4946"
     inkscape:connector-curvature="0" />
  <path
     style="opacity:1;fill:#333333;fill-opacity:1;stroke-width:1.08474576;paint-order:normal"
     d="m 315.71591,424.28526 c -1.46215,-0.78251 -3.03068,-1.19271 -3.48562,-0.91154 -0.45495,0.28117 -0.82718,-0.006 -0.82718,-0.63754 0,-0.63182 -0.47186,-1.14877 -1.04859,-1.14877 -1.28702,0 -8.66192,-7.26192 -8.84971,-8.71412 -0.1636,-1.26515 -0.61362,-3.11575 -0.8485,-3.48927 -0.0938,-0.14915 -0.4349,-22.96949 -0.758,-50.71186 -0.3231,-27.74238 -0.78019,-51.05085 -1.01575,-51.79661 -0.33691,-1.06657 -15.57235,-1.35593 -71.39061,-1.35593 h -70.9623 l -5.24743,-3.52543 c -2.88609,-1.93898 -6.61149,-5.56568 -8.27866,-8.05931 l -3.03121,-4.53389 V 234.6695 c 0,-30.94549 0.43594,-55.84628 1.0031,-57.29662 1.45354,-3.71698 8.64019,-10.26883 13.77292,-12.55636 4.10629,-1.83008 9.53606,-2.00054 74.30509,-2.33274 38.43129,-0.19712 69.9383,-0.43367 70.01557,-0.52569 0.0772,-0.092 0.37286,-23.42343 0.65688,-51.8476 l 0.5164,-51.680313 2.53864,-3.641722 c 4.10112,-5.883114 7.29525,-8.399798 13.04974,-10.281996 6.94251,-2.270782 12.89778,-1.477436 18.61537,2.479891 5.5198,3.820427 121.02947,118.25149 151.76653,150.34935 12.43639,12.98697 23.83255,25.54677 25.3248,27.91065 3.9671,6.28429 3.71728,12.79586 -0.73946,19.2735 -1.89895,2.76004 -15.99847,17.98019 -31.33225,33.82257 -37.38854,38.62864 -131.05075,131.61398 -139.85918,138.84846 -3.87796,3.18502 -7.29491,6.08738 -7.59322,6.44967 -1.7311,2.10246 -12.75844,2.53869 -16.29737,0.64471 z"
     id="path4948"
     inkscape:connector-curvature="0" />
  <path
     style="opacity:1;fill:#4d4d4d;fill-opacity:1;stroke-width:1.08474576;paint-order:normal"
     d="m 95.162634,425.18875 c -0.149782,-0.1498 -1.956949,-0.50598 -4.015925,-0.79154 -2.058978,-0.28556 -5.330036,-1.00052 -7.269019,-1.58879 -1.938983,-0.58825 -3.525424,-0.7998 -3.525424,-0.47009 0,0.32971 -0.732203,-0.008 -1.627119,-0.75092 -0.894915,-0.74271 -1.627118,-0.98678 -1.627118,-0.54237 0,0.44441 -0.732204,0.20034 -1.627119,-0.54237 -0.894915,-0.74272 -1.627118,-1.03531 -1.627118,-0.65019 0,0.38511 -1.194604,-0.0826 -2.654674,-1.03921 -1.460071,-0.95668 -3.046512,-1.75861 -3.525424,-1.78208 -1.486689,-0.0729 -6.220767,-2.04839 -6.814775,-2.84383 -0.715325,-0.95788 -9.546464,-6.70164 -10.303904,-6.70164 -1.396283,0 -16.209781,-14.67693 -19.106925,-18.93077 -1.436186,-2.10874 -2.977349,-3.83741 -3.424807,-3.84149 -0.447458,-0.004 -0.813559,-0.73961 -0.813559,-1.63452 0,-0.89492 -0.390075,-1.62712 -0.866834,-1.62712 -0.476757,0 -1.484624,-1.70848 -2.239705,-3.79661 -0.755079,-2.08814 -1.910766,-3.79661 -2.568195,-3.79661 -0.657427,0 -0.890814,-0.30451 -0.518635,-0.67669 0.372178,-0.37217 -0.222354,-2.44675 -1.321183,-4.61017 -1.098829,-2.16341 -3.283234,-8.01337 -4.854234,-12.99989 l -2.856364,-9.06643 0.07549,-110.25561 c 0.04152,-60.64059 0.305675,-112.20816 0.587011,-114.5946 0.281336,-2.38644 1.228393,-6.16949 2.104571,-8.40678 0.876179,-2.23729 1.293168,-4.0678 0.926642,-4.0678 -0.366527,0 -0.05874,-0.7322 0.683977,-1.62712 0.742714,-0.89491 1.035298,-1.62712 0.650188,-1.62712 -0.385111,0 0.01944,-1.0983 0.898992,-2.44067 0.879557,-1.34238 1.563427,-2.83887 1.519713,-3.32555 -0.08092,-0.900828 3.536176,-8.432064 4.524327,-9.420216 0.298305,-0.298305 2.412202,-3.319934 4.697547,-6.714729 4.47762,-6.651338 16.772625,-19.669304 19.602612,-20.755274 0.953557,-0.365914 1.73374,-1.168754 1.73374,-1.784088 0,-0.615335 0.640159,-1.11879 1.422578,-1.11879 0.782417,0 2.373973,-0.854237 3.53679,-1.898305 1.663491,-1.493609 15.30107,-8.778666 17.820293,-9.519418 0.298305,-0.08771 1.274576,-0.479193 2.169491,-0.869955 8.62683,-3.766876 12.570286,-4.067293 61.921864,-4.717277 27.196,-0.358185 51.67828,-0.316686 54.40506,0.09222 2.9681,0.445095 6.11005,1.811351 7.82894,3.404372 1.57914,1.463498 2.54218,2.660906 2.14009,2.660906 -0.4021,0 -0.25045,0.61017 0.33699,1.355932 1.4869,1.887624 1.41892,43.94102 -0.0767,47.436527 -2.35649,5.507605 -3.79243,6.086765 -15.89529,6.411085 -6.25511,0.16762 -11.67527,0.49163 -12.0448,0.72001 -0.36954,0.22838 -17.58392,0.46475 -38.25418,0.52527 -26.47133,0.0775 -37.582313,0.46169 -37.582313,1.29953 0,0.65422 -0.29164,0.89786 -0.648089,0.54141 -0.907334,-0.90734 -10.153046,4.94129 -13.627595,8.6205 -1.587219,1.68071 -4.027897,5.25245 -5.423728,7.93719 l -2.537876,4.88136 -0.279219,105.06522 -0.279218,105.06522 3.888504,6.40117 c 4.280557,7.04655 8.402975,10.67163 15.712705,13.81707 4.296331,1.84875 8.780669,2.15414 41.160619,2.80311 47.29804,0.94796 61.24066,1.91036 64.01212,4.4185 1.15842,1.04835 1.86569,2.29527 1.57173,2.77092 -0.29398,0.47565 -0.0979,1.13462 0.43563,1.46438 0.53357,0.32976 0.9512,10.63764 0.92809,22.90637 -0.0411,21.81109 -0.10121,22.39806 -2.7047,26.41325 -1.46446,2.25853 -3.46058,4.26246 -4.43581,4.45317 -2.08916,0.40854 -99.919166,0.76149 -100.318727,0.36194 z"
     id="path4950"
     inkscape:connector-curvature="0" />
</svg>
